<svg width="30" height="30" viewBox="0 0 30 30" fill="none" xmlns="http://www.w3.org/2000/svg">
<g clip-path="url(#clip0_6254_35499)">
<path d="M11.6016 22.9297C12.3116 24.0597 13.5616 24.8297 15.0016 24.8297C16.4416 24.8297 17.6816 24.0697 18.4016 22.9297H11.6116H11.6016Z" fill="#040000"/>
<path d="M22.7102 19.63H22.1202V14.04C22.1202 10.42 19.4002 7.43 15.9102 6.99V5.9C15.9102 5.4 15.5102 5 15.0102 5C14.5102 5 14.1102 5.4 14.1102 5.9V6.99C10.6102 7.44 7.90016 10.42 7.90016 14.04V19.63H7.31016C6.81016 19.63 6.41016 20.03 6.41016 20.53C6.41016 21.03 6.81016 21.43 7.31016 21.43H22.7302C23.2302 21.43 23.6302 21.03 23.6302 20.53C23.6302 20.03 23.2302 19.63 22.7302 19.63H22.7102Z" fill="#040000"/>
</g>
<defs>
<clipPath id="clip0_6254_35499">
<rect width="17.22" height="19.83" fill="white" transform="translate(6.39062 5)"/>
</clipPath>
</defs>
</svg>
