<svg width="24" height="24" viewBox="0 0 24 24" fill="none" xmlns="http://www.w3.org/2000/svg">
<path d="M19.0205 9.25V7.84C19.0205 6.62 18.0205 5.62 16.8005 5.62H15.9205V5C15.9205 4.59 15.5805 4.25 15.1705 4.25C14.7605 4.25 14.4205 4.59 14.4205 5V5.62H9.58047V5C9.58047 4.59 9.24047 4.25 8.83047 4.25C8.42047 4.25 8.08047 4.59 8.08047 5V5.62H7.20047C5.98047 5.62 4.98047 6.61 4.98047 7.84V9.25H19.0205Z" fill="#040000"/>
<path d="M4.98047 10.75V17.53C4.98047 18.75 5.98047 19.75 7.20047 19.75H16.8005C18.0205 19.75 19.0205 18.75 19.0205 17.53V10.75H4.98047Z" fill="#040000"/>
</svg>
