<svg width="20" height="20" viewBox="0 0 20 20" fill="none" xmlns="http://www.w3.org/2000/svg">
<path d="M10.0013 18.3337C14.6037 18.3337 18.3346 14.6027 18.3346 10.0003C18.3346 5.39795 14.6037 1.66699 10.0013 1.66699C5.39893 1.66699 1.66797 5.39795 1.66797 10.0003C1.66797 14.6027 5.39893 18.3337 10.0013 18.3337Z" fill="#D3D9E4"/>
<path d="M9.05472 12.0135C9.06678 10.4758 9.50093 10.0055 10.2607 9.54122C10.7732 9.20957 11.1712 8.80557 11.1652 8.20258C11.1712 7.52724 10.6406 7.09308 9.98332 7.09308C9.59099 7.09308 9.20647 7.25977 8.97697 7.60343C8.75151 7.94104 8.44699 8.287 8.04102 8.287C7.6118 8.287 7.25237 7.92527 7.38005 7.51549C7.72658 6.40342 8.76414 5.83887 9.99538 5.83887C11.6234 5.83887 12.739 6.74335 12.745 8.17846C12.739 9.16133 12.2506 9.8005 11.4667 10.2648C10.7672 10.6929 10.4778 11.109 10.4657 12.0135C10.4657 12.0734 10.4171 12.122 10.3572 12.122H9.16326C9.10331 12.122 9.05472 12.0734 9.05472 12.0135ZM8.86176 13.8466C8.85573 13.34 9.28385 12.924 9.80242 12.918C10.3029 12.924 10.731 13.34 10.731 13.8466C10.731 14.3651 10.3029 14.7872 9.80242 14.7872C9.28385 14.7872 8.85573 14.3651 8.86176 13.8466Z" fill="white"/>
</svg>
