<svg width="20" height="20" viewBox="0 0 20 20" fill="none" xmlns="http://www.w3.org/2000/svg">
<path d="M13.946 3.42773H15.8875C16.1027 3.42773 16.309 3.51329 16.4612 3.66557C16.6133 3.81785 16.6988 4.02438 16.6988 4.23974V16.585C16.6988 16.8004 16.6133 17.0069 16.4612 17.1592C16.309 17.3115 16.1027 17.397 15.8875 17.397H4.10816C4.00159 17.3971 3.89605 17.3762 3.79757 17.3354C3.6991 17.2947 3.60962 17.2349 3.53427 17.1594C3.45891 17.084 3.39916 16.9945 3.35842 16.8959C3.31769 16.7973 3.29677 16.6917 3.29688 16.585V4.23974C3.29677 4.13308 3.31769 4.02744 3.35842 3.92888C3.39916 3.83032 3.45891 3.74076 3.53427 3.66534C3.60962 3.58992 3.6991 3.53011 3.79757 3.48934C3.89605 3.44857 4.00159 3.42763 4.10816 3.42773H5.81239" fill="#D3D9E4"/>
<path d="M5.50391 2.91986C5.50391 2.74569 5.6451 2.60449 5.81927 2.60449H14.1848C14.359 2.60449 14.5002 2.74569 14.5002 2.91986C14.5002 3.76131 14.1662 4.5683 13.5718 5.1633C12.9773 5.75829 12.171 6.09256 11.3303 6.09256H8.67291C7.83236 6.09233 7.02631 5.75796 6.43203 5.16299C5.83776 4.56802 5.50391 3.76116 5.50391 2.91986Z" fill="#B4BECF"/>
<path d="M7.375 13.4746H12.6221" stroke="white" stroke-width="1.33333" stroke-miterlimit="10" stroke-linecap="round"/>
</svg>
