<svg width="20" height="20" viewBox="0 0 20 20" fill="none" xmlns="http://www.w3.org/2000/svg">
<path d="M16.0725 7.94931C16.0725 4.37013 12.6043 1.56312 8.68316 2.34575C6.4078 2.79445 4.57427 4.50578 4.07722 6.64494C3.58018 8.78411 4.28709 10.6207 5.63463 11.9355C6.19794 12.4885 6.56244 13.1877 6.56244 13.9598V14.389C6.56244 14.9629 7.05948 15.4325 7.66698 15.4325H12.5049C13.1013 15.4325 13.5984 14.9733 13.5984 14.3994V13.8033C13.5984 13.0729 13.9297 12.3842 14.4599 11.852C15.465 10.8294 16.0836 9.46238 16.0836 7.94931H16.0725Z" fill="#D3D9E4"/>
<path d="M10.0039 15.9229L10.0039 10.4258" stroke="white" stroke-width="1.33333" stroke-linecap="round"/>
<path d="M8.38951 10.2715H11.6133" stroke="white" stroke-width="1.33333" stroke-linecap="round"/>
<path d="M7.58984 15.4316H12.4174V16.7514C12.4174 17.3675 11.9133 17.8715 11.2973 17.8715H8.70992C8.09388 17.8715 7.58984 17.3675 7.58984 16.7514V15.4316Z" fill="#B4BECF"/>
</svg>
