<svg width="20" height="20" viewBox="0 0 20 20" fill="none" xmlns="http://www.w3.org/2000/svg">
<path d="M9.23472 2.66054C9.5776 2.07186 10.428 2.07186 10.7709 2.66054L12.7666 6.08698C12.8922 6.30262 13.1027 6.45554 13.3466 6.50835L17.2221 7.34757C17.8879 7.49175 18.1507 8.30057 17.6968 8.80858L15.0547 11.7654C14.8885 11.9515 14.8081 12.199 14.8332 12.4472L15.2327 16.3923C15.3013 17.0701 14.6133 17.57 13.9898 17.2953L10.3613 15.6963C10.1329 15.5957 9.87274 15.5957 9.64438 15.6963L6.0158 17.2953C5.39239 17.57 4.70436 17.0701 4.77299 16.3923L5.17243 12.4472C5.19757 12.199 5.11717 11.9515 4.9509 11.7654L2.30887 8.80858C1.85496 8.30057 2.11776 7.49175 2.78358 7.34757L6.65903 6.50835C6.90293 6.45554 7.1134 6.30262 7.239 6.08698L9.23472 2.66054Z" fill="#D3D9E4"/>
<path opacity="0.5" d="M9.52523 5.81049C9.74115 5.4517 10.2613 5.4517 10.4772 5.81049L11.6842 7.81609C11.7618 7.94499 11.8883 8.03691 12.0349 8.07086L14.3153 8.59901C14.7233 8.69349 14.884 9.1882 14.6095 9.50442L13.075 11.2721C12.9764 11.3857 12.9281 11.5344 12.9411 11.6843L13.1435 14.0163C13.1797 14.4335 12.7589 14.7393 12.3733 14.5759L10.218 13.6628C10.0794 13.6041 9.92304 13.6041 9.78452 13.6628L7.62918 14.5759C7.2436 14.7393 6.82278 14.4335 6.85899 14.0163L7.06138 11.6843C7.07438 11.5344 7.02605 11.3857 6.92744 11.2721L5.39298 9.50442C5.11847 9.1882 5.27921 8.69349 5.68716 8.59901L7.96759 8.07086C8.11414 8.03691 8.24067 7.94499 8.31824 7.81609L9.52523 5.81049Z" fill="#B4BECF"/>
</svg>
