<svg width="30" height="30" viewBox="0 0 30 30" fill="none" xmlns="http://www.w3.org/2000/svg">
<g clip-path="url(#clip0_6253_33862)">
<path d="M4.05078 14.8125H25.9434" stroke="currentColor" stroke-width="1.5" stroke-linecap="round" stroke-linejoin="round"/>
<path d="M24.2419 21.3135V23.751C24.2419 23.9665 24.1608 24.1731 24.0163 24.3255C23.8719 24.4779 23.676 24.5635 23.4717 24.5635H21.1609C20.9566 24.5635 20.7607 24.4779 20.6162 24.3255C20.4718 24.1731 20.3906 23.9665 20.3906 23.751V21.3135" stroke="currentColor" stroke-width="1.5" stroke-linecap="round" stroke-linejoin="round"/>
<path d="M9.60913 21.3135V23.751C9.60913 23.9665 9.52798 24.1731 9.38353 24.3255C9.23907 24.4779 9.04315 24.5635 8.83887 24.5635H6.52808C6.32379 24.5635 6.12787 24.4779 5.98342 24.3255C5.83897 24.1731 5.75781 23.9665 5.75781 23.751V21.3135" stroke="currentColor" stroke-width="1.5" stroke-linecap="round" stroke-linejoin="round"/>
<path d="M9.21875 18.0615H10.6638" stroke="currentColor" stroke-width="1.5" stroke-linecap="round" stroke-linejoin="round"/>
<path d="M19.3359 18.0615H20.781" stroke="currentColor" stroke-width="1.5" stroke-linecap="round" stroke-linejoin="round"/>
<path d="M24.2441 14.8125L21.3662 7.98242C21.3057 7.83883 21.207 7.71683 21.0821 7.6312C20.9572 7.54558 20.8114 7.5 20.6624 7.5H9.33954C9.19056 7.5 9.04478 7.54558 8.91986 7.6312C8.79493 7.71683 8.69623 7.83883 8.63571 7.98242L5.75781 14.8125V21.3125H24.2441V14.8125Z" stroke="currentColor" stroke-width="1.5" stroke-linecap="round" stroke-linejoin="round"/>
</g>
<defs>
<clipPath id="clip0_6253_33862">
<rect width="30" height="30" fill="white"/>
</clipPath>
</defs>
</svg>
