<svg width="40" height="40" viewBox="0 0 40 40" fill="none" xmlns="http://www.w3.org/2000/svg">
<path d="M13.0814 22.543H26.9186C29.3602 22.5817 31.6878 23.6692 33.3904 25.5668C35.0929 27.4644 36.0312 30.0168 35.9992 32.6637V36.0038C35.9992 36.5561 35.5515 37.0038 34.9992 37.0038H5.00079C4.44851 37.0038 4.00079 36.5561 4.00079 36.0038V32.6637C3.96877 30.0168 4.90704 27.4644 6.6096 25.5668C8.31215 23.6692 10.6398 22.5817 13.0814 22.543Z" fill="#AFB5C2"/>
<path d="M19.9986 19.4016C24.332 19.4016 27.8449 15.8887 27.8449 11.5553C27.8449 7.22189 24.332 3.70898 19.9986 3.70898C15.6652 3.70898 12.1523 7.22189 12.1523 11.5553C12.1523 15.8887 15.6652 19.4016 19.9986 19.4016Z" fill="#AFB5C2"/>
</svg>
