<svg width="24" height="24" viewBox="0 0 24 24" fill="none" xmlns="http://www.w3.org/2000/svg">
<path d="M8.0311 6H4.9689C4.70993 6 4.5 6.20843 4.5 6.46555V9.53445C4.5 9.79157 4.70993 10 4.9689 10H8.0311C8.29007 10 8.5 9.79157 8.5 9.53445V6.46555C8.5 6.20843 8.29007 6 8.0311 6Z" stroke="#CDD3E0" stroke-width="1.5" stroke-linecap="round" stroke-linejoin="round"/>
<path d="M8.0311 14H4.9689C4.70993 14 4.5 14.2084 4.5 14.4655V17.5345C4.5 17.7916 4.70993 18 4.9689 18H8.0311C8.29007 18 8.5 17.7916 8.5 17.5345V14.4655C8.5 14.2084 8.29007 14 8.0311 14Z" stroke="#CDD3E0" stroke-width="1.5" stroke-linecap="round" stroke-linejoin="round"/>
<path d="M12.5 8L19.5 8" stroke="#CDD3E0" stroke-width="1.5" stroke-linecap="round" stroke-linejoin="round"/>
<path d="M12.5 16L19.5 16" stroke="#CDD3E0" stroke-width="1.5" stroke-linecap="round" stroke-linejoin="round"/>
</svg>
