<svg width="148" height="44" viewBox="0 0 148 44" fill="none" xmlns="http://www.w3.org/2000/svg">
<path d="M71.7957 17.6953C69.8938 16.2376 67.5305 15.375 64.9703 15.375C62.4101 15.375 60.0468 16.2376 58.1449 17.6953V15.375H53.5703V38.6728H58.1449V21.2864C58.5388 20.6855 60.6095 18.7792 64.5708 18.9029C68.8697 19.038 71.7957 21.8816 71.7957 27.0224V38.6728H76.3703V27.0224C76.3703 23.2071 74.5725 19.8172 71.7957 17.6953Z" fill="currentColor"/>
<path d="M47.0272 15.375V17.6924C45.1254 16.2376 42.7621 15.375 40.2019 15.375C33.9082 15.375 28.8047 20.5877 28.8047 27.0224C28.8047 33.4572 33.9082 38.6728 40.2019 38.6728C42.7621 38.6728 45.1254 37.8102 47.0272 36.3525V38.6728H51.6018V15.375H47.0272ZM44.9228 31.847C41.3919 35.4525 36.4206 36.2173 33.8126 33.552C31.2074 30.8896 31.9557 25.8062 35.4838 22.2007C39.0118 18.5924 43.9859 17.8304 46.5911 20.4929C46.7487 20.6539 46.895 20.8235 47.0272 21.0046C48.5521 23.0374 48.4874 26.1139 47.0272 28.9488C46.5011 29.9667 45.7978 30.9529 44.9228 31.847Z" fill="currentColor"/>
<path d="M96.5663 9.625V17.6928C94.6644 16.238 92.3011 15.3754 89.7409 15.3754C83.4473 15.3754 78.3438 20.5881 78.3438 27.0229C78.3438 33.4576 83.4473 38.6732 89.7409 38.6732C92.3011 38.6732 94.6644 37.8106 96.5663 36.3529V38.6732H101.141V9.625H96.5663ZM94.4618 31.8474C90.931 35.4529 85.9597 36.2178 83.3516 33.5524C80.7464 30.89 81.4948 25.8066 85.0228 22.2011C88.5508 18.5928 93.525 17.8308 96.1302 20.4933C96.2878 20.6543 96.4341 20.8239 96.5663 21.0051C98.0912 23.0378 98.0264 26.1143 96.5663 28.9492C96.0402 29.9671 95.3368 30.9533 94.4618 31.8474Z" fill="currentColor"/>
<path d="M15.439 15.3754C12.8788 15.3754 10.5156 16.238 8.61369 17.6928V9.625H4.03906V38.6732H8.61369V36.3529C10.5156 37.8106 12.8788 38.6732 15.439 38.6732C21.7327 38.6732 26.8362 33.4576 26.8362 27.0229C26.8362 20.5881 21.7327 15.3754 15.439 15.3754ZM22.2616 28.9492C21.7355 29.9671 21.0321 30.9533 20.1572 31.8474C16.6263 35.4529 11.655 36.2178 9.04695 33.5524C6.44172 30.89 7.1901 25.8066 10.7181 22.2011C14.2462 18.5928 19.2203 17.8308 21.8255 20.4933C21.9831 20.6543 22.1294 20.8239 22.2616 21.0051C23.7865 23.0378 23.7218 26.1143 22.2616 28.9492Z" fill="currentColor"/>
<path d="M130.864 18.7879C130.315 19.3485 129.84 19.9523 129.426 20.5849V15.375H124.852V38.6728H129.426V27.4969C129.426 23.7303 133.472 20.6769 138.463 20.6769C138.618 20.6769 138.772 20.6798 138.924 20.6855V15.375C136.007 15.375 133.089 16.5136 130.864 18.7879Z" fill="currentColor"/>
<path d="M142.119 38.6732C143.883 38.6732 145.312 37.2121 145.312 35.4098C145.312 33.6075 143.883 32.1465 142.119 32.1465C140.355 32.1465 138.926 33.6075 138.926 35.4098C138.926 37.2121 140.355 38.6732 142.119 38.6732Z" fill="#FFA20C"/>
<path d="M108.837 33.4888L122.888 19.13C122.68 18.8971 122.463 18.6757 122.235 18.4601C122.004 18.2445 121.765 18.0374 121.518 17.8419C119.585 16.2951 117.154 15.375 114.509 15.375C108.213 15.375 103.109 20.5877 103.109 27.0253C103.109 33.4629 108.213 38.6728 114.507 38.6728C117.658 38.6728 120.505 37.3703 122.567 35.2599L118.893 31.5049C115.699 34.5354 111.471 35.3318 108.837 33.4859V33.4888ZM109.788 21.5308C111.991 19.2795 114.76 18.1352 117.162 18.2445L106.57 29.0696C106.463 26.6142 107.583 23.785 109.786 21.5308H109.788ZM107.051 31.2691L119.315 18.7361C119.616 18.8684 119.903 19.0294 120.173 19.2163L107.521 32.1432C107.338 31.8672 107.18 31.5739 107.051 31.2662V31.2691Z" fill="currentColor"/>
</svg>
