<svg width="24" height="24" viewBox="0 0 24 24" fill="none" xmlns="http://www.w3.org/2000/svg">
<path d="M18.2442 4.67109L11.5302 7.29381H8.25991C7.38581 7.26643 6.53664 7.58769 5.89921 8.18696C5.26179 8.78624 4.88834 9.61444 4.86099 10.4893C4.83364 11.3642 5.15461 12.2141 5.75335 12.8521C6.35209 13.4901 7.17955 13.8639 8.05366 13.8913C8.12242 13.8913 8.19115 13.8913 8.25991 13.8913H11.5302L18.2442 16.4829C18.3388 16.5294 18.4437 16.551 18.549 16.5458C18.6543 16.5407 18.7565 16.5088 18.8461 16.4533C18.9358 16.3978 19.01 16.3204 19.0616 16.2285C19.1132 16.1365 19.1406 16.0329 19.1413 15.9274V5.22749C19.1407 5.12192 19.1134 5.01819 19.0618 4.92609C19.0102 4.83399 18.9362 4.75651 18.8465 4.7009C18.7569 4.64529 18.6546 4.61341 18.5492 4.60818C18.4438 4.60296 18.3389 4.62462 18.2442 4.67109Z" stroke="currentColor" stroke-width="1.2" stroke-linecap="round" stroke-linejoin="round"/>
<path d="M10.2796 19.3919H6.80469L8.17813 13.9971H11.6522L10.2796 19.3919Z" stroke="currentColor" stroke-width="1.2" stroke-linecap="round" stroke-linejoin="round"/>
<path d="M11.5312 7.49023V14.3101" stroke="currentColor" stroke-width="1.2" stroke-linecap="round" stroke-linejoin="round"/>
</svg>
