<svg width="24" height="24" viewBox="0 0 24 24" fill="none" xmlns="http://www.w3.org/2000/svg">
<path d="M18.4992 14.5646V5.87101C18.4992 5.60466 18.3934 5.34921 18.2052 5.16079C18.0169 4.97238 17.7616 4.86642 17.4952 4.86621H6.504C6.23771 4.86663 5.98247 4.97266 5.79425 5.16103C5.60603 5.34939 5.50021 5.60472 5.5 5.87101V18.1302C5.50085 18.396 5.60697 18.6506 5.79514 18.8384C5.98332 19.0261 6.2382 19.1316 6.504 19.1318H13.9312" stroke="currentColor" stroke-width="1.2" stroke-linecap="round" stroke-linejoin="round"/>
<path d="M18.5009 14.5645H14.9649C14.6903 14.5645 14.427 14.6735 14.2329 14.8677C14.0388 15.0618 13.9297 15.3251 13.9297 15.5997V19.1341L18.5009 14.5645Z" stroke="currentColor" stroke-width="1.2" stroke-linecap="round" stroke-linejoin="round"/>
</svg>
