<svg width="36" height="36" viewBox="0 0 36 36" fill="none" xmlns="http://www.w3.org/2000/svg">
<path d="M27.1141 11.6365C26.9789 12.1209 26.2935 12.125 26.1525 11.6422L25.3906 9.03274C25.3412 8.86346 25.2062 8.73273 25.0355 8.68871L23.2373 8.22523C22.7263 8.0935 22.7414 7.36255 23.2575 7.25212L25.0719 6.8639C25.2554 6.82465 25.4014 6.686 25.4502 6.50483L26.1607 3.86303C26.2934 3.36956 26.9936 3.3695 27.1264 3.86296L27.8374 6.50491C27.8861 6.68604 28.0322 6.82465 28.2156 6.8639L30.0135 7.24866C30.5305 7.3593 30.5444 8.09198 30.032 8.22219L28.1974 8.68839C28.0238 8.7325 27.8871 8.86609 27.839 9.03861L27.1141 11.6365Z" fill="#FDA81F"/>
<path d="M25.0934 8.34668H10.9071C10.3152 8.34668 9.85156 8.83008 9.85156 9.40226V27.0611C9.85156 27.5247 10.3646 27.8108 10.7493 27.5642L16.9348 23.6576C17.2604 23.4504 17.6254 23.3517 17.9904 23.3517C18.3554 23.3517 18.7204 23.4504 19.046 23.6576L25.2315 27.5642C25.6261 27.8108 26.1292 27.5346 26.1292 27.0611V9.40226C26.1292 8.81035 25.6458 8.34668 25.0736 8.34668H25.0934Z" fill="#F6D155"/>
<path d="M25.0934 8.34668H10.9071C10.3152 8.34668 9.85156 8.83008 9.85156 9.40226V27.0611C9.85156 27.5247 10.3646 27.8108 10.7493 27.5642L16.9348 23.6576C17.2604 23.4504 17.6254 23.3517 17.9904 23.3517C18.3554 23.3517 18.7204 23.4504 19.046 23.6576L25.2315 27.5642C25.6261 27.8108 26.1292 27.5346 26.1292 27.0611V9.40226C26.1292 8.81035 25.6458 8.34668 25.0736 8.34668H25.0934ZM24.6494 24.4073C24.6494 24.7921 24.2351 25.019 23.9095 24.8118L18.8585 21.6253C18.5922 21.4576 18.2962 21.3688 17.9904 21.3688C17.6944 21.3688 17.3886 21.4576 17.1321 21.6253L12.0811 24.8118C11.7654 25.0091 11.3412 24.7822 11.3412 24.4073V10.9906C11.3412 10.517 11.726 10.1323 12.2094 10.1323H23.7813C24.2548 10.1323 24.6396 10.517 24.6396 10.9906V24.4073H24.6494Z" fill="#F6D155"/>
<path d="M23.7909 10.1224C24.2644 10.1224 24.6492 10.5072 24.6492 10.9807V16.0416H26.1487V9.40226C26.1487 8.81035 25.6653 8.34668 25.0931 8.34668H18V10.1224H23.7909Z" fill="#F6D155"/>
<path d="M11.3511 10.9906C11.3511 10.517 11.7358 10.1323 12.2192 10.1323H18.0101V8.34668H10.9071C10.3152 8.34668 9.85156 8.83008 9.85156 9.40226V16.0514H11.3511V10.9906Z" fill="#F6D155"/>
<path d="M17.1321 21.6306L12.091 24.8072C11.7753 25.0045 11.3511 24.7776 11.3511 24.4027V16.0469H9.85156V27.0565C9.85156 27.5202 10.3646 27.8063 10.7493 27.5596L16.9348 23.653C17.2604 23.4458 17.6254 23.3472 17.9904 23.3472V21.3741C17.6944 21.3741 17.3886 21.4629 17.1321 21.6306Z" fill="#F6D155"/>
<path d="M24.6512 16.0518V24.4076C24.6512 24.7924 24.2369 25.0193 23.9113 24.8121L18.8603 21.6256C18.594 21.4579 18.298 21.3691 17.9922 21.3691V23.3422C18.3572 23.3422 18.7222 23.4408 19.0478 23.648L25.2333 27.5546C25.6279 27.8013 26.131 27.525 26.131 27.0515V16.0518H24.6315H24.6512Z" fill="#F6D155"/>
<path d="M11.3438 16.0519V24.4077C11.3438 24.7925 11.7581 25.0194 12.0836 24.8122L17.1347 21.6257C17.401 21.458 17.697 21.3692 17.9929 21.3692V16.042H11.3438V16.0519Z" fill="#F6D155"/>
<path d="M18.0007 10.1221H12.2197C11.7363 10.1221 11.3516 10.5167 11.3516 10.9803V16.0412H18.0007V10.1221Z" fill="#F6D155"/>
<path d="M23.7909 10.1221H18V16.0511H24.6492V10.9902C24.6492 10.5068 24.2546 10.1319 23.7909 10.1319V10.1221Z" fill="#F6D155"/>
<path d="M17.9922 21.3712C18.2881 21.3712 18.594 21.46 18.8603 21.6277L23.9113 24.8142C24.227 25.0115 24.6512 24.7846 24.6512 24.4097V16.0439H18.0021V21.3712H17.9922Z" fill="#F6D155"/>
<path d="M14.8359 16.0518H21.1816" stroke="white" stroke-width="1.5" stroke-linecap="round" stroke-linejoin="round"/>
</svg>
