<svg width="36" height="36" viewBox="0 0 36 36" fill="none" xmlns="http://www.w3.org/2000/svg">
<path d="M26.7833 8.32812H12.2829C11.0566 8.32812 10.0625 9.32222 10.0625 10.5485V25.1851C10.0625 26.4114 11.0566 27.4055 12.2829 27.4055H26.7833C28.0096 27.4055 29.0037 26.4114 29.0037 25.1851V10.5485C29.0037 9.32222 28.0096 8.32812 26.7833 8.32812Z" fill="#FDA81F"/>
<path d="M24.549 6.33398H10.0485C8.82222 6.33398 7.82812 7.32808 7.82812 8.55435V23.191C7.82812 24.4173 8.82222 25.4114 10.0485 25.4114H24.549C25.7752 25.4114 26.7693 24.4173 26.7693 23.191V8.55435C26.7693 7.32808 25.7752 6.33398 24.549 6.33398Z" fill="#F6D155"/>
<path d="M11.7305 11.1582H20.5847" stroke="white" stroke-width="1.5" stroke-linecap="round" stroke-linejoin="round"/>
<path d="M11.7305 14.8135H17.0371" stroke="white" stroke-width="1.5" stroke-linecap="round" stroke-linejoin="round"/>
<path d="M15.2667 19.0951C15.1663 18.9898 15.047 18.9062 14.9157 18.8491C14.7844 18.7921 14.6437 18.7627 14.5015 18.7627C14.3593 18.7627 14.2186 18.7921 14.0873 18.8491C13.956 18.9062 13.8367 18.9898 13.7363 19.0951L13.4561 19.3886L13.1759 19.0951C12.9729 18.8826 12.6976 18.7632 12.4105 18.7632C12.1235 18.7632 11.8481 18.8826 11.6452 19.0951C11.4422 19.3077 11.3281 19.596 11.3281 19.8966C11.3281 20.1972 11.4422 20.4855 11.6452 20.698L11.9254 20.9914L13.4573 22.5926L14.9877 20.9902L15.2679 20.6967C15.3683 20.5916 15.448 20.4667 15.5023 20.3292C15.5566 20.1918 15.5845 20.0444 15.5844 19.8957C15.5843 19.7469 15.5561 19.5997 15.5016 19.4623C15.4471 19.3249 15.3673 19.2002 15.2667 19.0951Z" fill="white" stroke="white" stroke-width="0.3" stroke-linejoin="round"/>
<rect x="16.1562" y="24.332" width="19.1366" height="9.19071" rx="4.59536" transform="rotate(-15 16.1562 24.332)" fill="currentColor"/>
<path d="M30.0575 27.4034L29.0391 23.6025L31.7215 22.8838L31.8551 23.3825L29.8226 23.9271L30.1307 25.0768L32.0214 24.5702L32.1536 25.0637L30.2629 25.5703L30.5738 26.7305L32.6299 26.1796L32.7635 26.6783L30.0575 27.4034Z" fill="white"/>
<path d="M26.2098 28.4337L25.1914 24.6328L25.8413 24.4587L26.3266 26.2698L26.3798 26.2556L27.6847 23.9647L28.5001 23.7463L27.2334 25.92L29.5244 27.5455L28.7386 27.7561L26.9076 26.4293L26.5433 27.0783L26.8598 28.2595L26.2098 28.4337Z" fill="white"/>
<path d="M24.3218 24.8649L25.3402 28.6658L24.6903 28.8399L23.6719 25.0391L24.3218 24.8649Z" fill="white"/>
<path d="M21.4403 29.711L20.4219 25.9102L21.0718 25.736L21.9566 29.0381L23.8886 28.5204L24.0223 29.0192L21.4403 29.711Z" fill="white"/>
</svg>
