<svg width="36" height="36" viewBox="0 0 36 36" fill="none" xmlns="http://www.w3.org/2000/svg">
<path d="M17.3949 8.16407C14.9571 8.16407 12.6191 9.13273 10.8953 10.8571C9.17147 12.5815 8.20312 14.9203 8.20312 17.3589C8.20312 19.7975 9.17147 22.1362 10.8953 23.8606C12.6191 25.5849 14.9571 26.5537 17.3949 26.5537H25.3801C25.8256 26.5537 26.0487 26.0151 25.7337 25.7001L24.2486 24.2153C24.0532 24.0199 24.0545 23.704 24.2391 23.4984C25.339 22.2739 26.0921 20.7738 26.4152 19.1533C26.771 17.369 26.5895 15.519 25.8935 13.838C25.1974 12.157 24.0181 10.7204 22.5052 9.71035C20.9923 8.70027 19.2138 8.16214 17.3949 8.16407Z" fill="#F6D155"/>
<path d="M14.3359 17.3584H20.4658" stroke="white" stroke-width="1.5" stroke-linecap="round" stroke-linejoin="round"/>
<ellipse cx="27.9212" cy="8.35718" rx="2.65022" ry="1.25638" transform="rotate(-47.4294 27.9212 8.35718)" fill="#FFBD2F"/>
<ellipse cx="1.86146" cy="0.882455" rx="1.86146" ry="0.882455" transform="matrix(-0.250123 -0.968214 -0.968214 0.250123 12.9883 5.74023)" fill="#FFBD2F"/>
<ellipse cx="2.62114" cy="1.62485" rx="2.62114" ry="1.62485" transform="matrix(-0.839511 -0.543342 -0.559372 0.828917 10.4453 6.60059)" fill="#FF8B42"/>
<ellipse cx="2.17544" cy="1.32737" rx="2.17544" ry="1.32737" transform="matrix(-0.887076 -0.461624 -0.461624 0.887076 31.6797 22.126)" fill="#FF8B42"/>
<ellipse cx="2.51078" cy="0.915042" rx="2.51078" ry="0.915042" transform="matrix(-0.480835 -0.876811 -0.876811 0.480835 25.0703 32.4951)" fill="#FFBD2F"/>
<ellipse cx="6.0555" cy="25.8254" rx="2.42102" ry="1.62864" transform="rotate(-36.5141 6.0555 25.8254)" fill="#FFBD2F"/>
</svg>
