<svg width="36" height="36" viewBox="0 0 36 36" fill="none" xmlns="http://www.w3.org/2000/svg">
<rect x="4.12109" y="10.915" width="17.583" height="22.9988" rx="1.44" transform="rotate(-16.084 4.12109 10.915)" fill="#FDA81F"/>
<path fill-rule="evenodd" clip-rule="evenodd" d="M19.6309 6.44235C20.3947 6.22236 21.1926 6.66298 21.4131 7.42673L26.9873 26.7588C27.2074 27.5228 26.766 28.3207 26.002 28.541L24.376 29.0097H13.2646C12.4694 29.0097 11.8242 28.3646 11.8242 27.5693V8.69235L19.6309 6.44235Z" fill="#BE7F1A"/>
<rect x="13.3203" y="4.89453" width="17.583" height="22.9988" rx="1.44" fill="#F6D155"/>
<rect x="15.8516" y="7.6123" width="4.62507" height="4.62507" rx="0.72" fill="white"/>
<rect x="15.8516" y="15" width="9.52702" height="1.0942" rx="0.5471" fill="white"/>
<rect x="15.8516" y="17.6973" width="9.52702" height="1.0942" rx="0.5471" fill="white"/>
<rect x="15.8516" y="23.3457" width="5.13243" height="1.0942" rx="0.5471" fill="white"/>
<circle cx="26.55" cy="22.5861" r="1.85467" fill="white"/>
</svg>
