<svg width="28" height="28" viewBox="0 0 28 28" fill="none" xmlns="http://www.w3.org/2000/svg">
<path d="M21.9394 24.7104L14.426 19.7871C14.1694 19.6238 13.831 19.6238 13.5744 19.7871L6.06104 24.7104C5.54771 25.0488 4.85938 24.6754 4.85938 24.0571V5.23878C4.85938 4.09544 5.79271 3.16211 6.93604 3.16211H21.0644C22.2077 3.16211 23.141 4.09544 23.141 5.23878V24.0571C23.141 24.6754 22.4527 25.0488 21.9394 24.7104Z" fill="currentColor" fill-opacity="0.5"/>
<path d="M6.93652 3.66211H21.0645C21.9316 3.66215 22.6406 4.37209 22.6406 5.23926V24.0566C22.6406 24.2818 22.3915 24.4092 22.2148 24.293L22.2139 24.292L14.7002 19.3691L14.6943 19.3652C14.2739 19.0978 13.7261 19.0977 13.3057 19.3652L13.3008 19.3691L5.78711 24.292L5.78613 24.293C5.60945 24.4094 5.35938 24.2819 5.35938 24.0566V5.23926C5.35938 4.42627 5.9829 3.75104 6.77539 3.66992L6.93652 3.66211Z" stroke="white" stroke-opacity="0.2"/>
</svg>
