<svg width="18" height="18" viewBox="0 0 18 18" fill="none" xmlns="http://www.w3.org/2000/svg">
<g clip-path="url(#clip0_6341_34360)">
<path d="M8.15537 3.05859C9.15414 3.05859 10.1305 3.35477 10.9609 3.90966C11.7914 4.46455 12.4387 5.25323 12.8209 6.17598C13.2031 7.09873 13.3031 8.1141 13.1082 9.09368C12.9134 10.0733 12.4324 10.9731 11.7262 11.6793C11.0199 12.3856 10.1201 12.8665 9.14056 13.0614C8.16097 13.2562 7.1456 13.1562 6.22286 12.774C5.30011 12.3918 4.51142 11.7445 3.95653 10.9141C3.40164 10.0836 3.10547 9.10727 3.10547 8.10849C3.10547 7.44533 3.23609 6.78866 3.48987 6.17598C3.74365 5.5633 4.11562 5.0066 4.58455 4.53768C5.53159 3.59064 6.81605 3.05859 8.15537 3.05859Z" stroke="currentColor" stroke-width="1.5" stroke-linecap="round" stroke-linejoin="round"/>
<path d="M11.6953 11.707L14.884 14.9425" stroke="currentColor" stroke-width="1.5" stroke-miterlimit="10" stroke-linecap="round"/>
</g>
<defs>
<clipPath id="clip0_6341_34360">
<rect width="18" height="18" fill="white"/>
</clipPath>
</defs>
</svg>
