<svg width="18" height="18" viewBox="0 0 18 18" fill="none" xmlns="http://www.w3.org/2000/svg">
<path d="M9.98611 2.19332L11.9147 5.88203L16.2193 6.47346C16.3585 6.4884 16.4933 6.53098 16.6158 6.59871C16.7384 6.66644 16.8461 6.75796 16.9328 6.86789C17.0195 6.97782 17.0834 7.10396 17.1207 7.2389C17.158 7.37385 17.168 7.51489 17.1501 7.65374C17.1139 7.88234 17.001 8.09182 16.83 8.24774L13.716 11.12L14.4514 15.1739C14.4728 15.312 14.4664 15.4531 14.4325 15.5887C14.3986 15.7244 14.338 15.8519 14.2542 15.9638C14.1703 16.0756 14.065 16.1696 13.9443 16.2402C13.8236 16.3108 13.69 16.3565 13.5514 16.3747C13.3139 16.4133 13.0704 16.3769 12.8545 16.2706L9.00126 14.3549L5.14411 16.2693C4.88753 16.3989 4.59125 16.426 4.31544 16.345C4.03962 16.264 3.80496 16.0812 3.65911 15.8335C3.54636 15.6328 3.50725 15.399 3.54854 15.1726L4.2904 11.1187L1.17254 8.24646C1.0702 8.15366 0.988167 8.0407 0.931591 7.91467C0.875016 7.78863 0.845125 7.65226 0.843796 7.51412C0.842468 7.37598 0.869732 7.23906 0.923873 7.11197C0.978015 6.98487 1.05786 6.87035 1.1584 6.7756C1.33049 6.61035 1.55067 6.50409 1.78711 6.47217L6.09168 5.88074L8.02026 2.19203C8.15813 1.94207 8.38559 1.75363 8.65684 1.66464C8.92808 1.57566 9.22296 1.59274 9.48211 1.71246C9.69928 1.81154 9.87712 1.98033 9.9874 2.19203" fill="#EFF2F5"/>
<g clip-path="url(#clip0_6253_33631)">
<path d="M9.98611 2.19429L11.9147 5.88301L16.2193 6.47443C16.3585 6.48937 16.4933 6.53196 16.6158 6.59969C16.7384 6.66742 16.8461 6.75893 16.9328 6.86886C17.0195 6.9788 17.0834 7.10494 17.1207 7.23988C17.158 7.37483 17.168 7.51586 17.1501 7.65472C17.1139 7.88332 17.001 8.0928 16.83 8.24872L13.716 11.121L14.4514 15.1749C14.4728 15.313 14.4664 15.4541 14.4325 15.5897C14.3986 15.7253 14.338 15.8529 14.2542 15.9647C14.1703 16.0766 14.065 16.1706 13.9443 16.2412C13.8236 16.3117 13.69 16.3575 13.5514 16.3757C13.3139 16.4143 13.0704 16.3779 12.8545 16.2716L9.00126 14.3559L5.14411 16.2703C4.88753 16.3999 4.59125 16.4269 4.31544 16.346C4.03962 16.265 3.80496 16.0821 3.65911 15.8344C3.54636 15.6338 3.50725 15.4 3.54854 15.1736L4.2904 11.1197L1.17254 8.24743C1.0702 8.15464 0.988167 8.04167 0.931591 7.91564C0.875016 7.78961 0.845125 7.65324 0.843796 7.5151C0.842468 7.37696 0.869732 7.24004 0.923873 7.11294C0.978015 6.98585 1.05786 6.87132 1.1584 6.77658C1.33049 6.61132 1.55067 6.50506 1.78711 6.47315L6.09168 5.88172L8.02026 2.19301C8.15813 1.94305 8.38559 1.7546 8.65684 1.66562C8.92808 1.57664 9.22296 1.59372 9.48211 1.71344C9.69928 1.81252 9.87712 1.98131 9.9874 2.19301" fill="url(#paint0_linear_6253_33631)"/>
</g>
<defs>
<linearGradient id="paint0_linear_6253_33631" x1="9.00126" y1="1.60938" x2="9.00126" y2="16.3918" gradientUnits="userSpaceOnUse">
<stop stop-color="#FFE26E"/>
<stop offset="1" stop-color="#FFBA43"/>
</linearGradient>
<clipPath id="clip0_6253_33631">
<rect width="9" height="16" fill="white" transform="translate(0 1)"/>
</clipPath>
</defs>
</svg>
