<svg width="14" height="14" viewBox="0 0 14 14" fill="none" xmlns="http://www.w3.org/2000/svg">
<path d="M7.76698 1.70591L9.26698 4.57491L12.615 5.03491C12.7233 5.04653 12.8281 5.07965 12.9234 5.13233C13.0187 5.18501 13.1026 5.25619 13.17 5.34169C13.2374 5.42719 13.2871 5.5253 13.3161 5.63026C13.3451 5.73522 13.3529 5.84491 13.339 5.95291C13.3108 6.13071 13.223 6.29364 13.09 6.41491L10.668 8.64891L11.24 11.8019C11.2566 11.9094 11.2516 12.0191 11.2253 12.1246C11.1989 12.2301 11.1518 12.3292 11.0866 12.4163C11.0214 12.5033 10.9394 12.5764 10.8455 12.6313C10.7517 12.6862 10.6478 12.7217 10.54 12.7359C10.3553 12.7659 10.1658 12.7376 9.99798 12.6549L7.00098 11.1649L4.00098 12.6539C3.80141 12.7547 3.57097 12.7757 3.35645 12.7128C3.14193 12.6498 2.95942 12.5076 2.84598 12.3149C2.75828 12.1588 2.72786 11.977 2.75998 11.8009L3.33698 8.64791L0.911977 6.41391C0.83238 6.34174 0.768574 6.25388 0.724571 6.15585C0.680568 6.05783 0.657319 5.95176 0.656286 5.84432C0.655253 5.73687 0.676458 5.63038 0.718568 5.53153C0.760678 5.43268 0.822782 5.3436 0.900977 5.26991C1.03483 5.14138 1.20608 5.05873 1.38998 5.03391L4.73798 4.57391L6.23798 1.70491C6.34521 1.5105 6.52213 1.36393 6.73309 1.29472C6.94406 1.22551 7.17341 1.2388 7.37498 1.33191C7.54388 1.40898 7.6822 1.54026 7.76798 1.70491" fill="#EFF2F5"/>
</svg>
