<svg width="50" height="50" viewBox="0 0 50 50" fill="none" xmlns="http://www.w3.org/2000/svg">
<path d="M39.1457 19.8163C35.6476 16.3182 30.5588 15.1911 25.519 16.2843L27.7656 9.48407L30.0197 2.67258V2.66127C30.0197 2.66127 30.016 2.66127 30.016 2.6575C27.9352 1.26278 25.2136 0.320408 22.1867 0.0716205C21.6477 0.022617 21.1011 0 20.5432 0C20.4791 0 20.4151 0 20.351 0C16.736 0.0339255 13.4716 1.04415 11.0516 2.6575C8.47704 4.3877 6.875 6.80772 6.875 9.48407H17.2185L10.4409 29.9826C8.58258 35.6143 9.51742 41.5701 13.4566 45.5054C19.4199 51.4688 30.0084 50.5528 37.1026 43.4586C44.1968 36.3644 45.1128 25.7796 39.1495 19.8125L39.1457 19.8163Z" fill="white"/>
<path d="M30.5695 36.9258C33.3709 34.1245 33.7325 29.9441 31.3771 27.5888C29.0218 25.2335 24.8415 25.595 22.0401 28.3964C19.2387 31.1978 18.8771 35.3781 21.2325 37.7335C23.5878 40.0888 27.7681 39.7272 30.5695 36.9258Z" fill="#0F0F12"/>
<path d="M17.3661 41.5957C14.9913 39.2209 13.9887 35.9452 14.3128 32.6582H13.5552C13.231 36.1375 14.3091 39.6054 16.8309 42.1272C19.0624 44.3587 22.0365 45.4594 25.1012 45.4594C25.5007 45.4594 25.9003 45.4368 26.2999 45.4029V44.649C23.0128 44.9732 19.7372 43.9705 17.3661 41.5957Z" fill="url(#paint0_linear_6539_33619)"/>
<path d="M35.7717 23.1932C33.2499 20.6714 29.782 19.5933 26.3027 19.9175V20.6751C29.5897 20.351 32.8654 21.3537 35.2402 23.7284C37.615 26.1032 38.6177 29.3789 38.2935 32.6659H39.0512C39.3754 29.1867 38.2973 25.7187 35.7755 23.1969L35.7717 23.1932Z" fill="url(#paint1_linear_6539_33619)"/>
<path d="M26.3026 22.2893V23.0469C26.7022 22.9979 27.1017 22.9715 27.5013 22.9715C29.7668 22.9715 31.9418 23.7707 33.5664 25.3953C35.4776 27.3065 36.2428 29.9753 35.9148 32.6592H36.6725C37.0004 29.783 36.1561 26.922 34.0979 24.8601C32.0398 22.8019 29.175 21.9575 26.2988 22.2855L26.3026 22.2893Z" fill="url(#paint2_linear_6539_33619)"/>
<path d="M19.0389 39.9259C17.3313 38.2184 16.4794 35.8586 16.6302 33.2803C16.6415 33.073 16.6641 32.8657 16.6867 32.6621H15.9253C15.9027 32.8544 15.8876 33.0428 15.8763 33.2351C15.7104 36.032 16.6415 38.5991 18.5036 40.4574C20.2225 42.1763 22.5446 43.1036 25.0927 43.1036C25.3038 43.1036 25.5149 43.0961 25.726 43.0848C25.9183 43.0735 26.1105 43.0546 26.299 43.0358V42.2743C26.0917 42.3007 25.8881 42.3196 25.6808 42.3309C23.0987 42.4892 20.7427 41.6298 19.0351 39.9222L19.0389 39.9259Z" fill="url(#paint3_linear_6539_33619)"/>
<defs>
<linearGradient id="paint0_linear_6539_33619" x1="14.343" y1="35.3647" x2="22.1496" y2="44.0459" gradientUnits="userSpaceOnUse">
<stop stop-color="white"/>
<stop offset="0.5" stop-color="#7B7B7B"/>
<stop offset="1" stop-color="white"/>
</linearGradient>
<linearGradient id="paint1_linear_6539_33619" x1="30.2569" y1="21.0521" x2="38.0636" y2="29.737" gradientUnits="userSpaceOnUse">
<stop stop-color="white"/>
<stop offset="0.5" stop-color="#7B7B7B"/>
<stop offset="1" stop-color="white"/>
</linearGradient>
<linearGradient id="paint2_linear_6539_33619" x1="29.5444" y1="23.5897" x2="34.9913" y2="28.7464" gradientUnits="userSpaceOnUse">
<stop stop-color="white"/>
<stop offset="0.5" stop-color="#7B7B7B" stop-opacity="0.5"/>
<stop offset="1" stop-color="white"/>
</linearGradient>
<linearGradient id="paint3_linear_6539_33619" x1="17.4218" y1="36.3977" x2="22.8687" y2="41.5544" gradientUnits="userSpaceOnUse">
<stop stop-color="white"/>
<stop offset="0.5" stop-color="#7B7B7B"/>
<stop offset="1" stop-color="white"/>
</linearGradient>
</defs>
</svg>
