<svg width="160" height="160" viewBox="0 0 160 160" fill="none" xmlns="http://www.w3.org/2000/svg">
  <title>Default profile image</title>
  <rect width="160" height="160" rx="80" fill="#F3F5F7"/>
  <circle cx="80" cy="68" r="34" fill="#F0C9AE"/>
  <path d="M45 71C45 47.8 59.5 33 80.3 33C101.1 33 115 47.5 115 70.5C106.8 66.7 97 64.5 86.4 64.5H74.2C63.4 64.5 53.4 66.8 45 71Z" fill="#262626"/>
  <path d="M50 129C54.6 108.1 67.1 95 80 95C92.9 95 105.4 108.1 110 129H50Z" fill="#C9D1DA"/>
  <path d="M35 145C39.2 116.3 56.1 99 80 99C103.9 99 120.8 116.3 125 145H35Z" fill="#DCE3EA"/>
  <circle cx="68" cy="68" r="4" fill="#3D312D"/>
  <circle cx="92" cy="68" r="4" fill="#3D312D"/>
  <path d="M70 84C75.5 88 84.5 88 90 84" stroke="#A06C58" stroke-width="5" stroke-linecap="round"/>
  <rect x="2" y="2" width="156" height="156" rx="78" stroke="white" stroke-opacity="0.7" stroke-width="4"/>
</svg>
