<svg width="203" height="60" viewBox="0 0 203 60" fill="none" xmlns="http://www.w3.org/2000/svg">
<path d="M98.4748 24.1308C95.8662 22.143 92.6247 20.9668 89.113 20.9668C85.6014 20.9668 82.3599 22.143 79.7512 24.1308V20.9668H73.4766V52.7365H79.7512V29.0278C80.2915 28.2084 83.1317 25.6089 88.5651 25.7775C94.4615 25.9618 98.4748 29.8394 98.4748 36.8497V52.7365H104.749V36.8497C104.749 31.6469 102.284 27.0243 98.4748 24.1308Z" fill="black"/>
<path d="M64.4983 20.9668V24.1269C61.8897 22.143 58.6482 20.9668 55.1365 20.9668C46.504 20.9668 39.5039 28.0751 39.5039 36.8497C39.5039 45.6243 46.504 52.7365 55.1365 52.7365C58.6482 52.7365 61.8897 51.5603 64.4983 49.5725V52.7365H70.773V20.9668H64.4983ZM61.6118 43.4287C56.7689 48.3453 49.9501 49.3882 46.3728 45.7537C42.7995 42.1231 43.8259 35.1912 48.6651 30.2746C53.5042 25.3541 60.3268 24.3151 63.9002 27.9457C64.1163 28.1653 64.317 28.3966 64.4983 28.6436C66.5899 31.4155 66.5011 35.6107 64.4983 39.4766C63.7767 40.8645 62.812 42.2093 61.6118 43.4287Z" fill="black"/>
<path d="M132.448 13.125V24.1266C129.839 22.1427 126.597 20.9665 123.086 20.9665C114.453 20.9665 107.453 28.0747 107.453 36.8493C107.453 45.6239 114.453 52.7361 123.086 52.7361C126.597 52.7361 129.839 51.5599 132.448 49.5721V52.7361H138.722V13.125H132.448ZM129.561 43.4283C124.718 48.3449 117.899 49.3878 114.322 45.7533C110.749 42.1227 111.775 35.1909 116.614 30.2743C121.453 25.3538 128.276 24.3148 131.849 27.9454C132.066 28.1649 132.266 28.3962 132.448 28.6433C134.539 31.4152 134.45 35.6104 132.448 39.4762C131.726 40.8642 130.761 42.209 129.561 43.4283Z" fill="black"/>
<path d="M21.1716 20.9665C17.66 20.9665 14.4185 22.1427 11.8098 24.1266V13.125H5.53516V52.7361H11.8098V49.5721C14.4185 51.5599 17.66 52.7361 21.1716 52.7361C29.8041 52.7361 36.8042 45.6239 36.8042 36.8493C36.8042 28.0747 29.8041 20.9665 21.1716 20.9665ZM30.5296 39.4762C29.808 40.8642 28.8432 42.209 27.6431 43.4283C22.8001 48.3449 15.9813 49.3878 12.4041 45.7533C8.8307 42.1227 9.85718 35.1909 14.6963 30.2743C19.5354 25.3538 26.3581 24.3148 29.9314 27.9454C30.1475 28.1649 30.3482 28.3962 30.5296 28.6433C32.6211 31.4152 32.5324 35.6104 30.5296 39.4762Z" fill="black"/>
<path d="M179.497 25.6207C178.744 26.3852 178.092 27.2086 177.525 28.0712V20.9668H171.25V52.7365H177.525V37.4966C177.525 32.3604 183.074 28.1966 189.92 28.1966C190.132 28.1966 190.344 28.2005 190.552 28.2084V20.9668C186.551 20.9668 182.549 22.5194 179.497 25.6207Z" fill="black"/>
<path d="M194.931 52.736C197.35 52.736 199.311 50.7437 199.311 48.286C199.311 45.8283 197.35 43.8359 194.931 43.8359C192.512 43.8359 190.551 45.8283 190.551 48.286C190.551 50.7437 192.512 52.736 194.931 52.736Z" fill="#FFA20C"/>
<path d="M149.283 45.6674L168.554 26.0873C168.269 25.7697 167.971 25.4678 167.659 25.1737C167.342 24.8797 167.014 24.5974 166.675 24.3308C164.024 22.2214 160.69 20.9668 157.062 20.9668C148.426 20.9668 141.426 28.0751 141.426 36.8536C141.426 45.6321 148.426 52.7365 157.058 52.7365C161.38 52.7365 165.286 50.9604 168.114 48.0826L163.074 42.9621C158.695 47.0946 152.895 48.1806 149.283 45.6635V45.6674ZM150.587 29.3611C153.608 26.2912 157.406 24.7307 160.701 24.8797L146.172 39.6412C146.026 36.2929 147.562 32.4349 150.583 29.3611H150.587ZM146.832 42.6406L163.653 25.5501C164.066 25.7305 164.46 25.95 164.83 26.2049L147.477 43.8325C147.226 43.4561 147.01 43.0562 146.832 42.6367V42.6406Z" fill="black"/>
</svg>
