<svg width="30" height="30" viewBox="0 0 30 30" fill="none" xmlns="http://www.w3.org/2000/svg">
<path d="M11.3758 16.4272H18.6234C19.9022 16.4475 21.1214 17.0172 22.0132 18.0111C22.9049 19.005 23.3964 20.3419 23.3796 21.7282V23.0015C23.3796 23.5538 22.9319 24.0015 22.3796 24.0015H7.61956C7.06727 24.0015 6.61956 23.5538 6.61956 23.0015V21.7282C6.60278 20.3419 7.09423 19.005 7.98599 18.0111C8.87775 17.0172 10.0969 16.4475 11.3758 16.4272Z" fill="#333D4B"/>
<path d="M14.9984 14.7814C17.2681 14.7814 19.1081 12.9415 19.1081 10.6717C19.1081 8.40199 17.2681 6.56201 14.9984 6.56201C12.7287 6.56201 10.8887 8.40199 10.8887 10.6717C10.8887 12.9415 12.7287 14.7814 14.9984 14.7814Z" fill="#333D4B"/>
</svg>
