<svg width="375" height="84" viewBox="0 0 375 84" fill="none" xmlns="http://www.w3.org/2000/svg">
<rect width="375" height="84" fill="white"/>
<mask id="path-1-inside-1_4001_15192" fill="white">
<path d="M0 0H375V54H0V0Z"/>
</mask>
<path d="M0 0H375V54H0V0Z" fill="white"/>
<path d="M0 0V1H375V0V-1H0V0Z" fill="#F3F5F6" mask="url(#path-1-inside-1_4001_15192)"/>
<path d="M37.2402 14.5195C37.6832 14.155 38.3226 14.155 38.7656 14.5195L46.248 20.6787C46.525 20.9067 46.6855 21.2468 46.6855 21.6055V30.9082C46.6853 31.5708 46.148 32.1074 45.4854 32.1074H40.3887V28.4121C40.3887 27.0945 39.3205 26.0264 38.0029 26.0264C36.6853 26.0264 35.6172 27.0945 35.6172 28.4121V32.1074H30.5205C29.8579 32.1074 29.3205 31.5708 29.3203 30.9082V21.6055C29.3203 21.2468 29.4809 20.9067 29.7578 20.6787L37.2402 14.5195Z" fill="#333D4B"/>
<text fill="#333D4B" style="white-space: pre" xml:space="preserve" font-family="Pretendard" font-size="10" letter-spacing="0em"><tspan x="33.6787" y="49.6572">&#xd648;</tspan></text>
<path d="M116.842 14.8844C117.003 14.8846 117.163 14.9163 117.312 14.9782C117.46 15.0402 117.596 15.1314 117.71 15.2458C117.824 15.3601 117.913 15.496 117.975 15.6452C118.036 15.7944 118.067 15.9545 118.066 16.1159L118.177 30.4801L118.276 30.6618C118.298 31.1405 119.457 31.6033 119.749 31.984H104.696C104.535 31.9842 104.374 31.9531 104.225 31.8913C104.075 31.8294 103.94 31.7381 103.825 31.6237C103.711 31.5093 103.619 31.3738 103.558 31.2243C103.496 31.0748 103.465 30.9143 103.465 30.7526V16.1159C103.464 15.9546 103.495 15.7944 103.557 15.6452C103.618 15.4959 103.708 15.3601 103.822 15.2458C103.936 15.1315 104.071 15.0401 104.22 14.9782C104.369 14.9163 104.528 14.8846 104.689 14.8844H116.842ZM107.104 23.8571C106.689 23.8571 106.354 24.1929 106.354 24.6071C106.354 25.0212 106.689 25.3571 107.104 25.3571H111.466C111.88 25.3569 112.216 25.0211 112.216 24.6071C112.216 24.193 111.88 23.8573 111.466 23.8571H107.104ZM107.104 19.6012C106.689 19.6012 106.354 19.937 106.354 20.3512C106.354 20.7654 106.689 21.1012 107.104 21.1012H114.469C114.883 21.1011 115.219 20.7653 115.219 20.3512C115.219 19.9371 114.883 19.6014 114.469 19.6012H107.104Z" fill="#B9BFCA"/>
<path d="M118.059 20.8197H119.773C120.72 20.8197 121.487 21.5873 121.487 22.5341V30.2697C121.487 31.2165 120.72 31.984 119.773 31.984C118.826 31.984 118.059 31.2165 118.059 30.2697V20.8197Z" fill="#D2D6DD"/>
<text fill="#A6ACB7" style="white-space: pre" xml:space="preserve" font-family="Pretendard" font-size="10" letter-spacing="0em"><tspan x="95.7148" y="49.6572">&#xcee4;&#xbba4;&#xb2c8;&#xd2f0;</tspan></text>
<path d="M187 13.4994C189.086 13.482 191.096 14.2876 192.593 15.7416C194.089 17.1956 194.952 19.1811 194.994 21.267C194.974 26.6478 190.195 30.3314 188.033 32.1234C187.744 32.3624 187.383 32.4954 187.008 32.5004C186.633 32.5053 186.268 32.3819 185.973 32.1508C183.727 30.3691 179.032 27.0322 179.008 21.267C179.05 19.1812 179.912 17.1957 181.408 15.7416C182.904 14.2876 184.914 13.4819 187 13.4994ZM186.999 18.3266C185.258 18.3266 183.846 19.7385 183.846 21.4799C183.846 23.2215 185.257 24.6341 186.999 24.6342C188.741 24.6342 190.152 23.2215 190.152 21.4799C190.152 19.7385 188.74 18.3266 186.999 18.3266Z" fill="#B9BFCA"/>
<circle cx="194.344" cy="15.5542" r="2.67227" fill="#C4C9D4" stroke="white" stroke-width="1.2"/>
<text fill="#A6ACB7" style="white-space: pre" xml:space="preserve" font-family="Pretendard" font-size="10" letter-spacing="0em"><tspan x="178.357" y="49.6572">&#xd0d0;&#xc0c9;</tspan></text>
<path d="M261.988 13.8324C264.512 13.8324 266.927 14.8182 268.746 16.5834C270.565 18.3377 271.627 20.7311 271.714 23.2543C271.714 28.1709 267.37 32.1674 262.01 32.1674C260.05 32.1781 258.133 31.6259 256.487 30.5756C256.325 30.4673 256.129 30.4452 255.945 30.5101L253.617 31.3441C253.097 31.5282 252.61 31.0191 252.815 30.5101L253.693 28.3334C253.769 28.1387 253.736 27.9332 253.628 27.7601C252.762 26.4281 252.285 24.8571 252.285 23.2543C252.372 20.7312 253.433 18.3377 255.241 16.5834C257.05 14.8182 259.476 13.8324 261.988 13.8324ZM258.225 21.7484C257.533 21.7484 256.973 22.3091 256.973 23.0004C256.973 23.6915 257.533 24.2513 258.225 24.2513C258.916 24.2512 259.475 23.6914 259.476 23.0004C259.476 22.3092 258.916 21.7486 258.225 21.7484ZM262.148 21.7484C261.457 21.7484 260.896 22.3091 260.896 23.0004C260.897 23.6915 261.457 24.2513 262.148 24.2513C262.839 24.2512 263.399 23.6914 263.399 23.0004C263.399 22.3092 262.84 21.7486 262.148 21.7484ZM266.072 21.7484C265.381 21.7484 264.82 22.3091 264.82 23.0004C264.82 23.6915 265.381 24.2513 266.072 24.2513C266.763 24.2512 267.323 23.6914 267.323 23.0004C267.323 22.3092 266.763 21.7486 266.072 21.7484Z" fill="#B9BFCA"/>
<text fill="#A6ACB7" style="white-space: pre" xml:space="preserve" font-family="Pretendard" font-size="10" letter-spacing="0em"><tspan x="253.357" y="49.6572">&#xcc44;&#xd305;</tspan></text>
<path d="M333.376 24.4272H340.623C341.902 24.4475 343.121 25.0172 344.013 26.0111C344.905 27.005 345.396 28.3419 345.38 29.7282V31.0015C345.38 31.5538 344.932 32.0015 344.38 32.0015H329.62C329.067 32.0015 328.62 31.5538 328.62 31.0015V29.7282C328.603 28.3419 329.094 27.005 329.986 26.0111C330.878 25.0172 332.097 24.4475 333.376 24.4272Z" fill="#B9BFCA"/>
<path d="M336.998 22.7814C339.268 22.7814 341.108 20.9415 341.108 18.6717C341.108 16.402 339.268 14.562 336.998 14.562C334.729 14.562 332.889 16.402 332.889 18.6717C332.889 20.9415 334.729 22.7814 336.998 22.7814Z" fill="#B9BFCA"/>
<text fill="#A6ACB7" style="white-space: pre" xml:space="preserve" font-family="Pretendard" font-size="10" letter-spacing="0em"><tspan x="324.036" y="49.6572">&#xb0b4;&#xc815;&#xbcf4;</tspan></text>
</svg>
