<svg width="14" height="14" viewBox="0 0 14 14" fill="none" xmlns="http://www.w3.org/2000/svg">
<path d="M7.766 1.70628L9.266 4.57528L12.614 5.03528C12.7223 5.0469 12.8271 5.08002 12.9224 5.1327C13.0177 5.18538 13.1016 5.25655 13.169 5.34206C13.2364 5.42756 13.2861 5.52567 13.3151 5.63063C13.3442 5.73558 13.3519 5.84528 13.338 5.95328C13.3098 6.13108 13.222 6.294 13.089 6.41528L10.667 8.64928L11.239 11.8023C11.2557 11.9097 11.2507 12.0194 11.2243 12.1249C11.198 12.2304 11.1508 12.3296 11.0856 12.4166C11.0204 12.5036 10.9384 12.5767 10.8446 12.6316C10.7507 12.6865 10.6468 12.7221 10.539 12.7363C10.3543 12.7663 10.1649 12.738 9.997 12.6553L7 11.1653L4 12.6543C3.80044 12.7551 3.56999 12.7761 3.35547 12.7131C3.14095 12.6502 2.95844 12.5079 2.845 12.3153C2.7573 12.1592 2.72688 11.9774 2.759 11.8013L3.336 8.64828L0.911 6.41428C0.831403 6.3421 0.767597 6.25424 0.723594 6.15622C0.679591 6.05819 0.656343 5.95213 0.655309 5.84468C0.654276 5.73724 0.675482 5.63075 0.717592 5.53189C0.759702 5.43304 0.821806 5.34397 0.9 5.27028C1.03385 5.14175 1.2051 5.0591 1.389 5.03428L4.737 4.57428L6.237 1.70528C6.34424 1.51086 6.52115 1.3643 6.73212 1.29509C6.94308 1.22588 7.17244 1.23917 7.374 1.33228C7.54291 1.40934 7.68123 1.54062 7.767 1.70528" fill="#EFF2F5"/>
<g clip-path="url(#clip0_4001_20117)">
<path d="M7.766 1.70628L9.266 4.57528L12.614 5.03528C12.7223 5.0469 12.8271 5.08002 12.9224 5.1327C13.0177 5.18538 13.1016 5.25655 13.169 5.34206C13.2364 5.42756 13.2861 5.52567 13.3151 5.63063C13.3442 5.73558 13.3519 5.84528 13.338 5.95328C13.3098 6.13108 13.222 6.294 13.089 6.41528L10.667 8.64928L11.239 11.8023C11.2557 11.9097 11.2507 12.0194 11.2243 12.1249C11.198 12.2304 11.1508 12.3296 11.0856 12.4166C11.0204 12.5036 10.9384 12.5767 10.8446 12.6316C10.7507 12.6865 10.6468 12.7221 10.539 12.7363C10.3543 12.7663 10.1649 12.738 9.997 12.6553L7 11.1653L4 12.6543C3.80044 12.7551 3.56999 12.7761 3.35547 12.7131C3.14095 12.6502 2.95844 12.5079 2.845 12.3153C2.7573 12.1592 2.72688 11.9774 2.759 11.8013L3.336 8.64828L0.911 6.41428C0.831403 6.3421 0.767597 6.25424 0.723594 6.15622C0.679591 6.05819 0.656343 5.95213 0.655309 5.84468C0.654276 5.73724 0.675482 5.63075 0.717592 5.53189C0.759702 5.43304 0.821806 5.34397 0.9 5.27028C1.03385 5.14175 1.2051 5.0591 1.389 5.03428L4.737 4.57428L6.237 1.70528C6.34424 1.51086 6.52115 1.3643 6.73212 1.29509C6.94308 1.22588 7.17244 1.23917 7.374 1.33228C7.54291 1.40934 7.68123 1.54062 7.767 1.70528" fill="url(#paint0_linear_4001_20117)"/>
</g>
<defs>
<linearGradient id="paint0_linear_4001_20117" x1="7" y1="1.25134" x2="7" y2="12.7488" gradientUnits="userSpaceOnUse">
<stop stop-color="#FFE26E"/>
<stop offset="1" stop-color="#FFBA43"/>
</linearGradient>
<clipPath id="clip0_4001_20117">
<rect width="7" height="12" fill="white" transform="translate(0 1)"/>
</clipPath>
</defs>
</svg>
