<svg width="20" height="20" viewBox="0 0 20 20" fill="none" xmlns="http://www.w3.org/2000/svg">
<path d="M17.0316 6.74383C17.0337 6.24757 16.9372 5.75585 16.748 5.29709C16.5587 4.83834 16.2803 4.42165 15.929 4.07117L15.9128 4.0539C15.2044 3.35708 14.2506 2.96655 13.2569 2.96655C12.2633 2.96655 11.3093 3.35708 10.6009 4.0539V4.08616H10.5698L8.41362 6.24123C8.2707 6.38454 8.13917 6.53869 8.02004 6.70232C8.82796 6.53809 9.66546 6.5995 10.4408 6.87983L11.9197 5.39915C12.2759 5.04943 12.7558 4.85454 13.255 4.85686C13.7541 4.85918 14.2322 5.05852 14.5851 5.41153C14.9381 5.76454 15.1374 6.24265 15.1396 6.74182C15.1418 7.241 14.9468 7.72085 14.597 8.07697L12.4246 10.2493C12.0737 10.5975 11.6007 10.795 11.1064 10.7997C10.612 10.8043 10.1353 10.6157 9.77786 10.2741C9.76958 10.2656 9.76297 10.2556 9.75831 10.2447C9.7462 10.2361 9.73701 10.2314 9.72721 10.2239C9.50424 10.0084 9.20537 9.88937 8.89529 9.89239C8.58522 9.89541 8.28886 10.0203 8.07013 10.2401L7.7168 10.5934C8.06883 11.3438 8.67586 11.9447 9.42973 12.2891C10.1338 12.6378 10.9296 12.7571 11.705 12.6302C12.4804 12.5032 13.1964 12.1364 13.7525 11.5813L15.9249 9.41012C16.2764 9.06086 16.5552 8.64541 16.7451 8.18775C16.9351 7.7301 17.0325 7.23934 17.0316 6.74383Z" fill="#A3A9B5"/>
<path d="M10.4063 7.62222L10.2259 7.55534C10.1884 7.54151 10.1482 7.53059 10.1073 7.51964C10.079 7.51215 10.0495 7.50464 10.0219 7.496L9.94644 7.47236C9.88131 7.45276 9.81665 7.43259 9.75267 7.41818C9.5684 7.37672 9.38138 7.34878 9.19304 7.3346L9.13549 7.32943C9.06633 7.32539 8.99822 7.32422 8.92906 7.32422C8.82877 7.32422 8.72794 7.3277 8.62765 7.33519L8.56489 7.34037C8.39184 7.35641 8.22002 7.38413 8.05071 7.42335L7.97754 7.44066C7.32413 7.6035 6.72676 7.93961 6.24842 8.41357L4.07492 10.5848C3.72417 10.9356 3.44589 11.3521 3.25609 11.8104C3.0663 12.2688 2.9687 12.76 2.96875 13.2561C2.9688 13.7522 3.06648 14.2434 3.25637 14.7017C3.44627 15.16 3.72466 15.5764 4.07548 15.9272C4.42631 16.2779 4.84277 16.5561 5.30112 16.7459C5.75946 16.9357 6.25075 17.0334 6.74684 17.0333C7.24292 17.0333 7.73411 16.9355 8.19241 16.7456C8.65072 16.5557 9.06716 16.2774 9.41791 15.9266L11.5903 13.7554C11.7331 13.6114 11.864 13.4561 11.9816 13.2909C11.1767 13.4509 10.3431 13.3865 9.57227 13.1047L8.0842 14.594C7.72719 14.9391 7.24881 15.1301 6.75232 15.1259C6.25584 15.1217 5.78089 14.9227 5.42973 14.5717C5.07858 14.2207 4.87942 13.7458 4.87503 13.2493C4.87064 12.7528 5.06148 12.2745 5.40637 11.9173L7.57748 9.74615C7.58866 9.73452 7.601 9.72408 7.61435 9.71502L7.63166 9.70119C7.70676 9.62943 7.78783 9.56408 7.87383 9.50581C7.88648 9.49663 7.90011 9.48908 7.91464 9.48333L7.92913 9.47468C8.01592 9.41927 8.10726 9.37145 8.20226 9.33174C8.21084 9.32813 8.21979 9.32523 8.22886 9.32309L8.24546 9.31792C8.34465 9.27963 8.44684 9.24955 8.55096 9.228C8.57423 9.22388 8.59774 9.22099 8.62131 9.21935H8.64721C8.73167 9.20561 8.81705 9.1977 8.90261 9.19571C8.97292 9.19571 9.03976 9.20321 9.10777 9.21185H9.1262C9.16999 9.21074 9.21376 9.21618 9.25594 9.228C9.36812 9.24634 9.47796 9.27648 9.58381 9.31792C9.81541 9.40694 10.0274 9.54025 10.208 9.71041L10.2773 9.77957C10.5033 9.9881 10.8009 10.1018 11.1085 10.0972C11.416 10.0926 11.71 9.97002 11.9297 9.75481L12.2819 9.40263C11.8995 8.59689 11.2308 7.96226 10.4063 7.62222Z" fill="#A3A9B5"/>
</svg>
