<svg width="18" height="18" viewBox="0 0 18 18" fill="none" xmlns="http://www.w3.org/2000/svg">
<path d="M14.4655 7.15409C14.4655 3.93282 11.344 1.40652 7.81504 2.11088C5.76722 2.51471 4.11703 4.05491 3.6697 5.98016C3.22236 7.9054 3.85857 9.5583 5.07136 10.7416C5.57834 11.2394 5.90639 11.8686 5.90639 12.5636V12.9498C5.90639 13.4663 6.35373 13.8889 6.90048 13.8889H11.2546C11.7914 13.8889 12.2387 13.4757 12.2387 12.9592V12.4227C12.2387 11.7653 12.537 11.1455 13.0141 10.6665C13.9187 9.74613 14.4754 8.51585 14.4754 7.15409H14.4655Z" fill="#D3D9E4"/>
<path d="M9.00195 14.3305L9.00195 9.38306" stroke="white" stroke-width="1.2" stroke-linecap="round"/>
<path d="M7.55076 9.24438H10.4521" stroke="white" stroke-width="1.2" stroke-linecap="round"/>
<path d="M6.8291 13.8889H11.1739V15.0767C11.1739 15.6311 10.7202 16.0848 10.1658 16.0848H7.83717C7.28273 16.0848 6.8291 15.6311 6.8291 15.0767V13.8889Z" fill="#B4BECF"/>
</svg>
