<svg width="14" height="14" viewBox="0 0 14 14" fill="none" xmlns="http://www.w3.org/2000/svg">
<path d="M7 0.578125C10.5467 0.578125 13.4219 3.4533 13.4219 7C13.4219 10.5467 10.5467 13.4219 7 13.4219C3.4533 13.4219 0.578125 10.5467 0.578125 7C0.578125 3.4533 3.4533 0.578125 7 0.578125ZM7.00098 8.74902C6.57361 8.74902 6.22679 9.09515 6.22656 9.52246C6.22656 9.94997 6.57347 10.2969 7.00098 10.2969C7.42832 10.2967 7.77441 9.94985 7.77441 9.52246C7.77419 9.09527 7.42818 8.74921 7.00098 8.74902ZM6.99316 3.55664C6.61316 3.55664 6.30469 3.86511 6.30469 4.24512V7.46387C6.30469 7.84387 6.61316 8.15234 6.99316 8.15234C7.37302 8.15216 7.68066 7.84376 7.68066 7.46387V4.24512C7.68066 3.86522 7.37302 3.55682 6.99316 3.55664Z" fill="#FF3A3D"/>
</svg>
