<svg width="24" height="24" viewBox="0 0 24 24" fill="none" xmlns="http://www.w3.org/2000/svg">
<g clip-path="url(#clip0_252_6779)">
<path d="M3.35497 8.10435C2.62515 8.30754 2.61635 9.32379 3.33973 9.78073L8.62831 13.1161C8.76116 13.2 8.90953 13.2466 9.05499 13.2501C9.20044 13.2537 9.33658 13.214 9.44649 13.1359L15.0428 9.15612C15.2042 9.04048 15.4412 9.27745 15.3261 9.43947L11.3462 15.0347C11.2682 15.1446 11.2285 15.2808 11.232 15.4262C11.2356 15.5717 11.2822 15.7201 11.3661 15.8529L14.7033 21.1443C15.1596 21.8671 16.1759 21.8583 16.3796 21.129L20.9272 4.84817C21.1282 4.12972 20.3543 3.35582 19.6352 3.55624L3.35497 8.10435Z" fill="#A3A9B5"/>
</g>
<defs>
<clipPath id="clip0_252_6779">
<rect width="24" height="24" fill="white"/>
</clipPath>
</defs>
</svg>
