<svg width="55" height="61" viewBox="0 0 55 61" fill="none" xmlns="http://www.w3.org/2000/svg">
<ellipse opacity="0.2" cx="25.345" cy="46.9311" rx="9.74969" ry="2.77648" fill="currentColor"/>
<g filter="url(#filter0_d_4001_18360)">
<path d="M36.416 23.6211C33.6744 20.8796 29.6862 19.9962 25.7363 20.853L27.497 15.5235L29.3863 10.2628L29.2637 10.1762C27.6329 9.08314 25.497 8.34162 23.1247 8.14664C22.7023 8.10823 22.2739 8.0905 21.8366 8.0905C21.7864 8.0905 21.7362 8.0905 21.686 8.0905C18.8528 8.11709 16.2944 8.90884 14.3978 10.1733C12.38 11.5293 11.1244 13.4259 11.1244 15.5235H19.231L13.9192 31.5888C12.4627 36.0025 13.1954 40.6703 16.2826 43.7545C20.9563 48.4282 29.2548 47.7103 34.8148 42.1504C40.3747 36.5904 41.0926 28.2948 36.419 23.6182L36.416 23.6211Z" fill="currentColor"/>
<path d="M21.8371 7.58485C22.2878 7.58486 22.7313 7.60321 23.1703 7.64312L23.1693 7.6441C25.4638 7.83318 27.5575 8.51753 29.2185 9.54624L29.5454 9.7566L29.5552 9.76253L29.2728 10.1635L29.5552 9.76352L29.6777 9.84944L29.9927 10.0717L29.8624 10.4341L27.9731 15.6941L26.4838 20.1996C30.1195 19.6348 33.749 20.4965 36.4063 22.9145L36.4191 22.9027L36.7766 23.2612C41.7028 28.1908 40.8693 36.811 35.1728 42.5077C29.476 48.2045 20.852 49.0384 15.9252 44.1116C12.6754 40.8647 11.9366 35.9851 13.4394 31.4307V31.4297L18.5315 16.0289H10.6188V15.5233C10.6189 13.2081 12.005 11.1723 14.1159 9.75364L14.1169 9.75265C16.1036 8.4282 18.7603 7.6123 21.681 7.58485H21.8371Z" stroke="white"/>
</g>
<path d="M29.6923 37.0307C31.8879 34.8352 32.1713 31.5589 30.3253 29.713C28.4794 27.8671 25.2031 28.1504 23.0076 30.346C20.8121 32.5415 20.5287 35.8177 22.3746 37.6637C24.2206 39.5096 27.4968 39.2263 29.6923 37.0307Z" fill="#F7DD31"/>
<path d="M19.3451 40.6911C17.4839 38.8299 16.6981 36.2627 16.9521 33.6865H16.3583C16.1043 36.4133 16.9492 39.1313 18.9256 41.1077C20.6745 42.8566 23.0055 43.7192 25.4073 43.7192C25.7204 43.7192 26.0336 43.7015 26.3467 43.6749V43.0841C23.7706 43.3381 21.2034 42.5523 19.3451 40.6911Z" fill="url(#paint0_linear_4001_18360)"/>
<path d="M33.7716 26.2685C31.7952 24.2921 29.0772 23.4472 26.3504 23.7012V24.295C28.9266 24.041 31.4938 24.8268 33.355 26.688C35.2162 28.5492 36.0021 31.1165 35.748 33.6926H36.3418C36.5959 30.9658 35.7509 28.2479 33.7745 26.2714L33.7716 26.2685Z" fill="url(#paint1_linear_4001_18360)"/>
<path d="M26.3504 25.5594V26.1532C26.6636 26.1148 26.9767 26.0941 27.2899 26.0941C29.0654 26.0941 30.77 26.7204 32.0433 27.9937C33.5411 29.4915 34.1409 31.5831 33.8838 33.6866H34.4776C34.7347 31.4325 34.0729 29.1902 32.4599 27.5742C30.8468 25.9611 28.6016 25.2994 26.3475 25.5564L26.3504 25.5594Z" fill="url(#paint2_linear_4001_18360)"/>
<path d="M20.6576 39.3825C19.3193 38.0442 18.6516 36.1948 18.7698 34.1741C18.7786 34.0116 18.7964 33.8491 18.8141 33.6896H18.2173C18.1996 33.8403 18.1878 33.988 18.1789 34.1387C18.0489 36.3307 18.7786 38.3426 20.2381 39.7991C21.5852 41.1462 23.405 41.873 25.4021 41.873C25.5676 41.873 25.733 41.867 25.8985 41.8582C26.0491 41.8493 26.1998 41.8346 26.3475 41.8198V41.223C26.185 41.2437 26.0255 41.2585 25.863 41.2673C23.8393 41.3914 21.9929 40.7178 20.6546 39.3795L20.6576 39.3825Z" fill="url(#paint3_linear_4001_18360)"/>
<defs>
<filter id="filter0_d_4001_18360" x="0" y="0" width="50.6308" height="61" filterUnits="userSpaceOnUse" color-interpolation-filters="sRGB">
<feFlood flood-opacity="0" result="BackgroundImageFix"/>
<feColorMatrix in="SourceAlpha" type="matrix" values="0 0 0 0 0 0 0 0 0 0 0 0 0 0 0 0 0 0 127 0" result="hardAlpha"/>
<feOffset dy="3"/>
<feGaussianBlur stdDeviation="5"/>
<feComposite in2="hardAlpha" operator="out"/>
<feColorMatrix type="matrix" values="0 0 0 0 0 0 0 0 0 0 0 0 0 0 0 0 0 0 0.3 0"/>
<feBlend mode="normal" in2="BackgroundImageFix" result="effect1_dropShadow_4001_18360"/>
<feBlend mode="normal" in="SourceGraphic" in2="effect1_dropShadow_4001_18360" result="shape"/>
</filter>
<linearGradient id="paint0_linear_4001_18360" x1="16.9758" y1="35.8077" x2="23.0941" y2="42.6114" gradientUnits="userSpaceOnUse">
<stop/>
<stop offset="0.5" stop-color="white"/>
<stop offset="1"/>
</linearGradient>
<linearGradient id="paint1_linear_4001_18360" x1="29.4495" y1="24.5905" x2="35.5678" y2="31.3971" gradientUnits="userSpaceOnUse">
<stop/>
<stop offset="0.5" stop-color="white"/>
<stop offset="1"/>
</linearGradient>
<linearGradient id="paint2_linear_4001_18360" x1="28.8911" y1="26.5786" x2="33.16" y2="30.62" gradientUnits="userSpaceOnUse">
<stop/>
<stop offset="0.5" stop-color="white"/>
<stop offset="1"/>
</linearGradient>
<linearGradient id="paint3_linear_4001_18360" x1="19.3902" y1="36.6173" x2="23.6591" y2="40.6587" gradientUnits="userSpaceOnUse">
<stop/>
<stop offset="0.5" stop-color="white"/>
<stop offset="1"/>
</linearGradient>
</defs>
</svg>
