<svg width="36" height="36" viewBox="0 0 36 36" fill="none" xmlns="http://www.w3.org/2000/svg">
<path d="M27.1141 11.6367C26.9789 12.1212 26.2935 12.1253 26.1525 11.6425L25.3906 9.03299C25.3412 8.8637 25.2062 8.73297 25.0355 8.68895L23.2373 8.22548C22.7263 8.09375 22.7414 7.36279 23.2575 7.25237L25.0719 6.86415C25.2554 6.82489 25.4014 6.68625 25.4502 6.50508L26.1607 3.86328C26.2934 3.3698 26.9936 3.36975 27.1264 3.8632L27.8374 6.50515C27.8861 6.68628 28.0322 6.82489 28.2156 6.86415L30.0135 7.24891C30.5305 7.35954 30.5444 8.09223 30.032 8.22244L28.1974 8.68863C28.0238 8.73275 27.8871 8.86634 27.839 9.03885L27.1141 11.6367Z" fill="#FDA81F"/>
<path d="M25.0934 8.34692H10.9071C10.3152 8.34692 9.85156 8.83032 9.85156 9.40251V27.0613C9.85156 27.525 10.3646 27.8111 10.7493 27.5644L16.9348 23.6578C17.2604 23.4506 17.6254 23.352 17.9904 23.352C18.3554 23.352 18.7204 23.4506 19.046 23.6578L25.2315 27.5644C25.6261 27.8111 26.1292 27.5348 26.1292 27.0613V9.40251C26.1292 8.81059 25.6458 8.34692 25.0736 8.34692H25.0934Z" fill="#F6D155"/>
<path d="M25.0934 8.34692H10.9071C10.3152 8.34692 9.85156 8.83032 9.85156 9.40251V27.0613C9.85156 27.525 10.3646 27.8111 10.7493 27.5644L16.9348 23.6578C17.2604 23.4506 17.6254 23.352 17.9904 23.352C18.3554 23.352 18.7204 23.4506 19.046 23.6578L25.2315 27.5644C25.6261 27.8111 26.1292 27.5348 26.1292 27.0613V9.40251C26.1292 8.81059 25.6458 8.34692 25.0736 8.34692H25.0934ZM24.6494 24.4076C24.6494 24.7923 24.2351 25.0192 23.9095 24.812L18.8585 21.6256C18.5922 21.4578 18.2962 21.3691 17.9904 21.3691C17.6944 21.3691 17.3886 21.4578 17.1321 21.6256L12.0811 24.812C11.7654 25.0093 11.3412 24.7824 11.3412 24.4076V10.9908C11.3412 10.5173 11.726 10.1325 12.2094 10.1325H23.7813C24.2548 10.1325 24.6396 10.5173 24.6396 10.9908V24.4076H24.6494Z" fill="#F6D155"/>
<path d="M23.7909 10.1227C24.2644 10.1227 24.6492 10.5074 24.6492 10.9809V16.0418H26.1487V9.40251C26.1487 8.81059 25.6653 8.34692 25.0931 8.34692H18V10.1227H23.7909Z" fill="#F6D155"/>
<path d="M11.3511 10.9908C11.3511 10.5173 11.7358 10.1325 12.2192 10.1325H18.0101V8.34692H10.9071C10.3152 8.34692 9.85156 8.83032 9.85156 9.40251V16.0517H11.3511V10.9908Z" fill="#F6D155"/>
<path d="M17.1321 21.6312L12.091 24.8078C11.7753 25.0051 11.3511 24.7782 11.3511 24.4034V16.0475H9.85156V27.0571C9.85156 27.5208 10.3646 27.8069 10.7493 27.5602L16.9348 23.6536C17.2604 23.4464 17.6254 23.3478 17.9904 23.3478V21.3747C17.6944 21.3747 17.3886 21.4635 17.1321 21.6312Z" fill="#F6D155"/>
<path d="M24.6512 16.0516V24.4075C24.6512 24.7923 24.2369 25.0192 23.9113 24.812L18.8603 21.6255C18.594 21.4578 18.298 21.369 17.9922 21.369V23.3421C18.3572 23.3421 18.7222 23.4407 19.0478 23.6479L25.2333 27.5545C25.6279 27.8012 26.131 27.5249 26.131 27.0514V16.0516H24.6315H24.6512Z" fill="#F6D155"/>
<path d="M11.3438 16.0517V24.4076C11.3438 24.7923 11.7581 25.0192 12.0836 24.8121L17.1347 21.6256C17.401 21.4579 17.697 21.3691 17.9929 21.3691V16.0419H11.3438V16.0517Z" fill="#F6D155"/>
<path d="M18.0007 10.1227H12.2197C11.7363 10.1227 11.3516 10.5173 11.3516 10.981V16.0418H18.0007V10.1227Z" fill="#F6D155"/>
<path d="M23.7909 10.1227H18V16.0517H24.6492V10.9908C24.6492 10.5074 24.2546 10.1325 23.7909 10.1325V10.1227Z" fill="#F6D155"/>
<path d="M17.9922 21.3719C18.2881 21.3719 18.594 21.4607 18.8603 21.6284L23.9113 24.8149C24.227 25.0122 24.6512 24.7853 24.6512 24.4104V16.0447H18.0021V21.3719H17.9922Z" fill="#F6D155"/>
<path d="M14.8359 16.0516H21.1816" stroke="white" stroke-width="1.5" stroke-linecap="round" stroke-linejoin="round"/>
</svg>
