<svg width="18" height="18" viewBox="0 0 18 18" fill="none" xmlns="http://www.w3.org/2000/svg">
<path d="M9.98611 2.19368L11.9147 5.8824L16.2193 6.47382C16.3585 6.48876 16.4933 6.53135 16.6158 6.59908C16.7384 6.66681 16.8461 6.75832 16.9328 6.86825C17.0195 6.97819 17.0834 7.10433 17.1207 7.23927C17.158 7.37422 17.168 7.51525 17.1501 7.65411C17.1139 7.88271 17.001 8.09219 16.83 8.24811L13.716 11.1204L14.4514 15.1743C14.4728 15.3124 14.4664 15.4535 14.4325 15.5891C14.3986 15.7247 14.338 15.8522 14.2542 15.9641C14.1703 16.076 14.065 16.17 13.9443 16.2406C13.8236 16.3111 13.69 16.3569 13.5514 16.3751C13.3139 16.4137 13.0704 16.3773 12.8545 16.271L9.00126 14.3553L5.14411 16.2697C4.88753 16.3993 4.59125 16.4263 4.31544 16.3454C4.03962 16.2644 3.80496 16.0815 3.65911 15.8338C3.54636 15.6332 3.50725 15.3994 3.54854 15.173L4.2904 11.1191L1.17254 8.24682C1.0702 8.15403 0.988167 8.04106 0.931591 7.91503C0.875016 7.789 0.845125 7.65263 0.843796 7.51449C0.842468 7.37635 0.869732 7.23943 0.923873 7.11233C0.978015 6.98524 1.05786 6.87071 1.1584 6.77597C1.33049 6.61071 1.55067 6.50445 1.78711 6.47254L6.09168 5.88111L8.02026 2.1924C8.15813 1.94243 8.38559 1.75399 8.65684 1.66501C8.92808 1.57603 9.22296 1.59311 9.48211 1.71282C9.69928 1.81191 9.87712 1.9807 9.9874 2.1924" fill="#EFF2F5"/>
</svg>
