<svg width="18" height="18" viewBox="0 0 18 18" fill="none" xmlns="http://www.w3.org/2000/svg">
<path d="M15.9775 2.68115C16.665 2.68115 17.2227 3.23877 17.2227 3.92627V7.15967H17.2217C16.3011 7.15987 15.5548 7.86785 15.5547 8.74072C15.5547 9.61371 16.301 10.3216 17.2217 10.3218L17.2227 10.3208V14.0737C17.2227 14.7612 16.665 15.3188 15.9775 15.3188H2.74707C2.05957 15.3188 1.50195 14.7612 1.50195 14.0737V10.7544C2.42256 10.7541 3.16895 9.96903 3.16895 8.99951C3.16873 8.03019 2.42243 7.24398 1.50195 7.24365V3.92627C1.50195 3.23877 2.05957 2.68115 2.74707 2.68115H15.9775Z" fill="url(#paint0_linear_4003_14017)"/>
<path d="M15.8057 2.42303C16.4932 2.42303 17.0508 2.98065 17.0508 3.66815V6.98553H17.0498C16.1292 6.98576 15.383 7.77201 15.3828 8.74139C15.3828 9.71097 16.1291 10.497 17.0498 10.4973L17.0508 10.4963V13.8156C17.0508 14.5031 16.4932 15.0607 15.8057 15.0607H2.5752C1.88769 15.0607 1.33008 14.5031 1.33008 13.8156V10.4963C2.25069 10.4959 2.99707 9.71091 2.99707 8.74139C2.99685 7.77208 2.25055 6.98586 1.33008 6.98553V3.66815C1.33008 2.98065 1.88769 2.42303 2.5752 2.42303H15.8057Z" fill="url(#paint1_linear_4003_14017)"/>
<mask id="path-3-inside-1_4003_14017" fill="white">
<path d="M15.248 2.97192C15.9355 2.97192 16.4931 3.52957 16.4932 4.21704V6.36273C16.4932 6.48264 16.4068 6.58353 16.2929 6.62087C15.5164 6.87531 14.9453 7.72762 14.9453 8.74146C14.9455 9.75502 15.5166 10.6058 16.2929 10.8601C16.4069 10.8974 16.4932 10.9983 16.4932 11.1182V13.2649C16.4932 13.9524 15.9355 14.51 15.248 14.51H3.1377C2.45019 14.51 1.89258 13.9524 1.89258 13.2649V11.1481C1.89258 11.0224 1.98711 10.9185 2.10842 10.8855C2.92409 10.6641 3.53302 9.78867 3.5332 8.74146C3.5332 7.69399 2.92426 6.81705 2.10843 6.59543C1.98712 6.56248 1.89258 6.45856 1.89258 6.33285V4.21704C1.89261 3.52957 2.45021 2.97192 3.1377 2.97192H15.248Z"/>
</mask>
<path d="M15.248 2.97192C15.9355 2.97192 16.4931 3.52957 16.4932 4.21704V6.36273C16.4932 6.48264 16.4068 6.58353 16.2929 6.62087C15.5164 6.87531 14.9453 7.72762 14.9453 8.74146C14.9455 9.75502 15.5166 10.6058 16.2929 10.8601C16.4069 10.8974 16.4932 10.9983 16.4932 11.1182V13.2649C16.4932 13.9524 15.9355 14.51 15.248 14.51H3.1377C2.45019 14.51 1.89258 13.9524 1.89258 13.2649V11.1481C1.89258 11.0224 1.98711 10.9185 2.10842 10.8855C2.92409 10.6641 3.53302 9.78867 3.5332 8.74146C3.5332 7.69399 2.92426 6.81705 2.10843 6.59543C1.98712 6.56248 1.89258 6.45856 1.89258 6.33285V4.21704C1.89261 3.52957 2.45021 2.97192 3.1377 2.97192H15.248Z" fill="url(#paint2_linear_4003_14017)"/>
<path d="M16.4932 4.21704H16.7932V4.21703L16.4932 4.21704ZM14.9453 8.74146H14.6453V8.74151L14.9453 8.74146ZM3.5332 8.74146L3.8332 8.74151V8.74146H3.5332ZM1.89258 4.21704L1.59258 4.21703V4.21704H1.89258ZM2.10843 6.59543L2.02979 6.88494L2.10843 6.59543ZM2.10842 10.8855L2.02982 10.596L2.10842 10.8855ZM16.2929 10.8601L16.1995 11.1452L16.2929 10.8601ZM15.248 2.97192V3.27192C15.7698 3.27192 16.1931 3.69524 16.1932 4.21705L16.4932 4.21704L16.7932 4.21703C16.7931 3.36389 16.1012 2.67192 15.248 2.67192V2.97192ZM16.4932 4.21704H16.1932V6.36273H16.4932H16.7932V4.21704H16.4932ZM16.2929 6.62087L16.1995 6.33579C15.2754 6.6386 14.6453 7.62555 14.6453 8.74146H14.9453H15.2453C15.2453 7.82968 15.7574 7.11203 16.3863 6.90596L16.2929 6.62087ZM14.9453 8.74146L14.6453 8.74151C14.6455 9.85734 15.2758 10.8426 16.1995 11.1452L16.2929 10.8601L16.3863 10.575C15.7574 10.369 15.2455 9.6527 15.2453 8.7414L14.9453 8.74146ZM16.4932 11.1182H16.1932V13.2649H16.4932H16.7932V11.1182H16.4932ZM16.4932 13.2649H16.1932C16.1932 13.7867 15.7699 14.21 15.248 14.21V14.51V14.81C16.1012 14.81 16.7932 14.1181 16.7932 13.2649H16.4932ZM15.248 14.51V14.21H3.1377V14.51V14.81H15.248V14.51ZM3.1377 14.51V14.21C2.61588 14.21 2.19258 13.7867 2.19258 13.2649H1.89258H1.59258C1.59258 14.1181 2.28451 14.81 3.1377 14.81V14.51ZM1.89258 13.2649H2.19258V11.1481H1.89258H1.59258V13.2649H1.89258ZM2.10842 10.8855L2.18702 11.1751C3.16144 10.9105 3.833 9.89263 3.8332 8.74151L3.5332 8.74146L3.2332 8.7414C3.23304 9.68472 2.68674 10.4177 2.02982 10.596L2.10842 10.8855ZM3.5332 8.74146H3.8332C3.8332 7.59028 3.16182 6.57071 2.18708 6.30593L2.10843 6.59543L2.02979 6.88494C2.68671 7.06339 3.2332 7.7977 3.2332 8.74146H3.5332ZM1.89258 6.33285H2.19258V4.21704H1.89258H1.59258V6.33285H1.89258ZM1.89258 4.21704L2.19258 4.21705C2.1926 3.69524 2.61591 3.27192 3.1377 3.27192V2.97192V2.67192C2.28451 2.67192 1.59262 3.36389 1.59258 4.21703L1.89258 4.21704ZM3.1377 2.97192V3.27192H15.248V2.97192V2.67192H3.1377V2.97192ZM2.10843 6.59543L2.18708 6.30593C2.18563 6.30553 2.18437 6.30494 2.18351 6.3044C2.18262 6.30384 2.1829 6.30381 2.18394 6.30504C2.18503 6.30633 2.18723 6.30934 2.1892 6.31446C2.19126 6.31981 2.19258 6.32623 2.19258 6.33285H1.89258H1.59258C1.59258 6.61827 1.80286 6.8233 2.02979 6.88494L2.10843 6.59543ZM1.89258 11.1481H2.19258C2.19258 11.1547 2.19126 11.1611 2.1892 11.1665C2.18723 11.1716 2.18503 11.1746 2.18394 11.1759C2.18289 11.1771 2.1826 11.1771 2.18348 11.1766C2.18433 11.176 2.18558 11.1754 2.18702 11.1751L2.10842 10.8855L2.02982 10.596C1.80283 10.6576 1.59258 10.8627 1.59258 11.1481H1.89258ZM16.2929 10.8601L16.1995 11.1452C16.2027 11.1462 16.2031 11.1476 16.2013 11.1453C16.2001 11.1439 16.1981 11.1408 16.1963 11.1359C16.1944 11.1307 16.1932 11.1246 16.1932 11.1182H16.4932H16.7932C16.7932 10.8464 16.601 10.6453 16.3863 10.575L16.2929 10.8601ZM16.4932 6.36273H16.1932C16.1932 6.35633 16.1944 6.35019 16.1963 6.34505C16.1981 6.3401 16.2001 6.33705 16.2013 6.33561C16.2031 6.33334 16.2027 6.33473 16.1995 6.33579L16.2929 6.62087L16.3863 6.90596C16.6009 6.83563 16.7932 6.63459 16.7932 6.36273H16.4932Z" fill="white" fill-opacity="0.5" mask="url(#path-3-inside-1_4003_14017)"/>
<path d="M10.7721 7.81145H12.1518C12.0828 7.16924 11.7466 6.57775 11.2153 6.16379C10.6839 5.74983 9.99968 5.54635 9.30924 5.59696C8.87882 5.59242 8.45227 5.67308 8.05779 5.83361C7.66332 5.99414 7.30991 6.23088 7.02093 6.52818C6.73195 6.82548 6.51399 7.17657 6.38146 7.55822C6.24894 7.93987 6.22952 8.32126 6.22852 8.7421C6.22852 10.7361 7.55459 11.8891 9.30924 11.8891C9.98841 11.927 10.658 11.7252 11.1847 11.3239C11.7115 10.9225 12.0567 10.351 12.1518 9.7232L10.7721 9.71479C10.7137 10.0251 10.5338 10.3042 10.2672 10.498C10.0007 10.6919 9.6665 10.7867 9.32929 10.7641C8.32664 10.7641 7.64082 10.0624 7.64082 8.7421C7.64082 7.45171 8.31661 6.72476 9.33831 6.72009C9.68129 6.6985 10.0203 6.79925 10.2865 7.0019C10.5527 7.20455 10.7263 7.49395 10.7721 7.81145Z" fill="currentColor"/>
<defs>
<linearGradient id="paint0_linear_4003_14017" x1="1.88763" y1="2.99055" x2="16.9194" y2="15.3188" gradientUnits="userSpaceOnUse">
<stop stop-color="#4A473C" stop-opacity="0"/>
<stop offset="1"/>
</linearGradient>
<linearGradient id="paint1_linear_4003_14017" x1="1.71576" y1="2.73243" x2="16.7475" y2="15.0607" gradientUnits="userSpaceOnUse">
<stop stop-color="#43F2FF"/>
<stop offset="1" stop-color="#4093FF"/>
</linearGradient>
<linearGradient id="paint2_linear_4003_14017" x1="2.21543" y1="2.97192" x2="16.1646" y2="14.51" gradientUnits="userSpaceOnUse">
<stop stop-color="white" stop-opacity="0"/>
<stop offset="1" stop-opacity="0.05"/>
</linearGradient>
</defs>
</svg>
