<svg width="50" height="50" viewBox="0 0 50 50" fill="none" xmlns="http://www.w3.org/2000/svg">
<path d="M39.1457 19.8163C35.6476 16.3182 30.5588 15.1911 25.519 16.2843L27.7656 9.48407L30.0197 2.67258V2.66127C30.0197 2.66127 30.016 2.66127 30.016 2.6575C27.9352 1.26278 25.2136 0.320408 22.1867 0.0716205C21.6477 0.022617 21.1011 0 20.5432 0C20.4791 0 20.4151 0 20.351 0C16.736 0.0339255 13.4716 1.04415 11.0516 2.6575C8.47704 4.3877 6.875 6.80772 6.875 9.48407H17.2185L10.4409 29.9826C8.58258 35.6143 9.51742 41.5701 13.4566 45.5054C19.4199 51.4688 30.0084 50.5528 37.1026 43.4586C44.1968 36.3644 45.1128 25.7796 39.1495 19.8125L39.1457 19.8163Z" fill="currentColor"/>
<path d="M30.5705 36.9261C33.3719 34.1248 33.7335 29.9444 31.3781 27.5891C29.0228 25.2338 24.8425 25.5953 22.0411 28.3967C19.2397 31.1981 18.8781 35.3784 21.2335 37.7338C23.5888 40.0891 27.7691 39.7275 30.5705 36.9261Z" fill="#F7DD31"/>
<path d="M17.3652 41.5964C14.9904 39.2216 13.9877 35.9459 14.3119 32.6589H13.5542C13.23 36.1382 14.3081 39.6061 16.8299 42.1279C19.0614 44.3595 22.0356 45.4602 25.1002 45.4602C25.4997 45.4602 25.8993 45.4375 26.2989 45.4036V44.6497C23.0119 44.9739 19.7362 43.9712 17.3652 41.5964Z" fill="url(#paint0_linear_4008_17234)"/>
<path d="M35.7717 23.1938C33.2499 20.672 29.782 19.5939 26.3027 19.9181V20.6758C29.5897 20.3516 32.8654 21.3543 35.2402 23.729C37.615 26.1038 38.6177 29.3795 38.2935 32.6665H39.0512C39.3754 29.1873 38.2973 25.7193 35.7755 23.1976L35.7717 23.1938Z" fill="url(#paint1_linear_4008_17234)"/>
<path d="M26.3026 22.289V23.0467C26.7022 22.9977 27.1017 22.9713 27.5013 22.9713C29.7668 22.9713 31.9418 23.7704 33.5664 25.3951C35.4776 27.3062 36.2428 29.975 35.9148 32.6589H36.6725C37.0004 29.7828 36.1561 26.9217 34.0979 24.8598C32.0398 22.8017 29.175 21.9573 26.2988 22.2852L26.3026 22.289Z" fill="url(#paint2_linear_4008_17234)"/>
<path d="M19.0389 39.9265C17.3313 38.219 16.4794 35.8593 16.6302 33.2809C16.6415 33.0736 16.6641 32.8663 16.6867 32.6627H15.9253C15.9027 32.855 15.8876 33.0434 15.8763 33.2357C15.7104 36.0327 16.6415 38.5997 18.5036 40.4581C20.2225 42.1769 22.5446 43.1042 25.0927 43.1042C25.3038 43.1042 25.5149 43.0967 25.726 43.0854C25.9183 43.0741 26.1105 43.0552 26.299 43.0364V42.275C26.0917 42.3013 25.8881 42.3202 25.6808 42.3315C23.0987 42.4898 20.7427 41.6304 19.0351 39.9228L19.0389 39.9265Z" fill="url(#paint3_linear_4008_17234)"/>
<defs>
<linearGradient id="paint0_linear_4008_17234" x1="14.342" y1="35.3654" x2="22.1487" y2="44.0466" gradientUnits="userSpaceOnUse">
<stop/>
<stop offset="0.5" stop-color="white"/>
<stop offset="1"/>
</linearGradient>
<linearGradient id="paint1_linear_4008_17234" x1="30.2569" y1="21.0527" x2="38.0636" y2="29.7376" gradientUnits="userSpaceOnUse">
<stop/>
<stop offset="0.5" stop-color="white"/>
<stop offset="1"/>
</linearGradient>
<linearGradient id="paint2_linear_4008_17234" x1="29.5444" y1="23.5895" x2="34.9913" y2="28.7462" gradientUnits="userSpaceOnUse">
<stop/>
<stop offset="0.5" stop-color="white"/>
<stop offset="1"/>
</linearGradient>
<linearGradient id="paint3_linear_4008_17234" x1="17.4218" y1="36.3983" x2="22.8687" y2="41.555" gradientUnits="userSpaceOnUse">
<stop/>
<stop offset="0.5" stop-color="white"/>
<stop offset="1"/>
</linearGradient>
</defs>
</svg>
