<svg width="14" height="14" viewBox="0 0 14 14" fill="none" xmlns="http://www.w3.org/2000/svg">
<path d="M6.28753 1.95496C7.13552 1.95496 7.96447 2.20642 8.66956 2.67754C9.37464 3.14866 9.92418 3.81828 10.2487 4.60172C10.5732 5.38516 10.6581 6.24724 10.4927 7.07894C10.3272 7.91064 9.91889 8.67461 9.31927 9.27423C8.71965 9.87385 7.95569 10.2822 7.12399 10.4476C6.29229 10.6131 5.43021 10.5282 4.64676 10.2036C3.86332 9.87914 3.1937 9.32959 2.72258 8.62451C2.25146 7.91943 2 7.09048 2 6.24249C2 5.67944 2.1109 5.12191 2.32637 4.60172C2.54184 4.08153 2.85765 3.60888 3.25579 3.21074C4.05986 2.40668 5.15041 1.95496 6.28753 1.95496Z" stroke="currentColor" stroke-width="1.5" stroke-linecap="round" stroke-linejoin="round"/>
<path d="M9.29199 9.29749L11.9993 12.0445" stroke="currentColor" stroke-width="1.5" stroke-miterlimit="10" stroke-linecap="round"/>
</svg>
