<svg width="50" height="50" viewBox="0 0 50 50" fill="none" xmlns="http://www.w3.org/2000/svg">
<path d="M12.013 28.5629C12.263 27.7129 13.043 27.1329 13.933 27.1329H36.073C36.963 27.1329 37.743 27.7129 37.993 28.5629L42.223 42.8529C42.603 44.1329 41.643 45.4229 40.303 45.4229H9.70301C8.36301 45.4229 7.40301 44.1329 7.78301 42.8529L12.013 28.5629Z" fill="#187EFE"/>
<path d="M7.69336 43.3929V44.9629C7.69336 46.2029 8.70336 47.2129 9.94336 47.2129H40.0534C41.2934 47.2129 42.3034 46.2029 42.3034 44.9629V43.3929H7.69336Z" fill="#BB742B"/>
<path d="M20.6633 27.1329H13.9333C13.0433 27.1329 12.2633 27.7129 12.0133 28.5629L11.1133 31.6029L19.3633 33.0629L20.6633 27.1329Z" fill="#F8BD81"/>
<path d="M40.4227 36.7929L37.9927 28.5629C37.7327 27.7129 36.9527 27.1329 36.0727 27.1329H24.7527L23.3027 33.7629L40.4227 36.7929Z" fill="#F9AC5F"/>
<path d="M9.97301 35.4629L7.78301 42.8529C7.40301 44.1329 8.36301 45.4229 9.70301 45.4229H16.663L18.513 36.9729L9.97301 35.4629Z" fill="#F8BD81"/>
<path d="M20.7539 45.4229H40.2939C41.6339 45.4229 42.5939 44.1329 42.2139 42.8529L41.6939 41.0829L22.4539 37.6729L20.7639 45.4229H20.7539Z" fill="#F9AC5F"/>
<path d="M40.4227 36.7929L23.3027 33.7629L24.7527 27.1329H20.6627L19.3627 33.0629L11.1127 31.6029L9.97266 35.4629L18.5027 36.9729L16.6627 45.4229H20.7527L22.4527 37.6729L41.6927 41.0829L40.4227 36.7929Z" fill="white"/>
<path d="M24.9983 10.3534C22.4261 10.3307 19.9491 11.3242 18.1027 13.1185C16.2586 14.9104 15.1947 17.9658 15.1426 20.538C15.1721 27.6469 20.9607 33.4582 23.7303 35.6562C24.0933 35.942 24.5446 36.094 25.0074 36.0872C25.4701 36.0804 25.9147 35.9171 26.2708 35.6222C28.9361 33.4129 34.8291 27.1728 34.854 20.538C34.8019 17.9658 33.738 14.9127 31.8916 13.1185C30.0475 11.3265 27.5683 10.333 24.996 10.3534H24.9983Z" fill="url(#paint0_linear_4001_10327)"/>
<path d="M24.4137 24.6594C27.3429 25.029 29.8083 22.5636 29.4387 19.6344C29.1882 17.6378 27.576 16.0256 25.5794 15.7751C22.6502 15.4055 20.1848 17.8684 20.5544 20.8001C20.8049 22.7967 22.4171 24.4089 24.4137 24.6594Z" fill="white"/>
<defs>
<linearGradient id="paint0_linear_4001_10327" x1="24.9983" y1="10.353" x2="24.9983" y2="36.0874" gradientUnits="userSpaceOnUse">
<stop stop-color="#FFAA22"/>
<stop offset="1" stop-color="#EB9100"/>
</linearGradient>
</defs>
</svg>
