<svg width="30" height="30" viewBox="0 0 30 30" fill="none" xmlns="http://www.w3.org/2000/svg">
<path d="M14.9883 5.83337C17.5115 5.83337 19.9267 6.81825 21.7461 8.58337C23.5654 10.3377 24.6271 12.7311 24.7139 15.2543C24.7139 20.1709 20.3704 24.1674 15.0098 24.1674C13.0498 24.1781 11.1333 23.6259 9.4873 22.5756C9.32486 22.4673 9.12942 22.4452 8.94531 22.5101L6.61719 23.3441C6.09737 23.5282 5.60967 23.0191 5.81543 22.5101L6.69336 20.3334C6.76891 20.1387 6.73604 19.9332 6.62793 19.7601C5.76156 18.4281 5.28516 16.8571 5.28516 15.2543C5.37189 12.7312 6.43281 10.3377 8.24121 8.58337C10.0497 6.81819 12.4759 5.83342 14.9883 5.83337ZM11.2256 13.7484C10.5343 13.7484 9.97363 14.3091 9.97363 15.0004C9.9738 15.6915 10.5344 16.2513 11.2256 16.2513C11.9166 16.2512 12.4764 15.6914 12.4766 15.0004C12.4766 14.3092 11.9167 13.7486 11.2256 13.7484ZM15.1484 13.7484C14.4572 13.7484 13.8965 14.3091 13.8965 15.0004C13.8966 15.6915 14.4573 16.2513 15.1484 16.2513C15.8395 16.2512 16.3993 15.6914 16.3994 15.0004C16.3994 14.3092 15.8396 13.7486 15.1484 13.7484ZM19.0742 13.7484C18.383 13.7484 17.8223 14.3091 17.8223 15.0004C17.8224 15.6915 18.3831 16.2513 19.0742 16.2513C19.7652 16.2512 20.325 15.6914 20.3252 15.0004C20.3252 14.3092 19.7653 13.7486 19.0742 13.7484Z" fill="#333D4B"/>
</svg>
