<svg width="30" height="30" viewBox="0 0 30 30" fill="none" xmlns="http://www.w3.org/2000/svg">
<path d="M14.082 4.39874C14.6371 4.07901 15.3203 4.07813 15.876 4.39679L23.7266 8.90167C24.2858 9.22259 24.6309 9.81842 24.6309 10.4632V19.5003C24.6309 20.143 24.2879 20.7372 23.7314 21.0589L15.8809 25.597C15.3227 25.9194 14.6347 25.9185 14.0771 25.595L6.26367 21.0589C5.70885 20.7368 5.36719 20.1438 5.36719 19.5023V10.4612C5.36719 9.81766 5.71095 9.22303 6.26855 8.90167L14.082 4.39874ZM22.5176 10.8548C22.273 10.4541 21.7503 10.3271 21.3496 10.5716L14.9492 14.4778L8.2168 10.5628C7.81116 10.3269 7.29083 10.464 7.05469 10.8694C6.81904 11.275 6.95602 11.7955 7.36133 12.0316L14.1094 15.9564V23.0931C14.1097 23.562 14.49 23.9424 14.959 23.9427C15.4282 23.9427 15.8092 23.5622 15.8096 23.0931V15.9437L22.2354 12.0228C22.6359 11.7782 22.7619 11.2554 22.5176 10.8548Z" fill="#4C545B"/>
</svg>
