<svg width="30" height="30" viewBox="0 0 30 30" fill="none" xmlns="http://www.w3.org/2000/svg">
<g clip-path="url(#clip0_299_7740)">
<path d="M18.1689 16.8467C18.2772 16.7746 18.4019 16.7307 18.5316 16.7189C18.6612 16.7071 18.7918 16.7278 18.9114 16.7792L23.525 18.8463C23.6804 18.9128 23.8102 19.0278 23.8949 19.1742C23.9795 19.3206 24.0145 19.4904 23.9945 19.6583C23.8425 20.7941 23.2832 21.8361 22.4205 22.5905C21.5579 23.3448 20.4506 23.7602 19.3046 23.7593C15.776 23.7593 12.3919 22.3575 9.89684 19.8624C7.40174 17.3673 6 13.9832 6 10.4546C5.99912 9.30867 6.41448 8.2014 7.16882 7.33873C7.92315 6.47607 8.96513 5.91673 10.101 5.76474C10.2689 5.7448 10.4387 5.77976 10.5851 5.86441C10.7315 5.94906 10.8465 6.07884 10.9129 6.23432L12.98 10.8518C13.0308 10.9704 13.0515 11.0997 13.0403 11.2282C13.029 11.3568 12.9861 11.4805 12.9155 11.5885L10.8249 14.0743C10.7507 14.1862 10.7069 14.3154 10.6976 14.4493C10.6884 14.5832 10.714 14.7173 10.7721 14.8383C11.5811 16.4945 13.2931 18.186 14.9542 18.9872C15.0759 19.045 15.2105 19.0701 15.3449 19.06C15.4792 19.0498 15.6086 19.0049 15.7202 18.9295L18.1689 16.8467Z" stroke="white" stroke-width="1.8" stroke-linecap="round" stroke-linejoin="round"/>
</g>
<defs>
<clipPath id="clip0_299_7740">
<rect width="30" height="30" fill="white"/>
</clipPath>
</defs>
</svg>
