<svg width="18" height="18" viewBox="0 0 18 18" fill="none" xmlns="http://www.w3.org/2000/svg">
<path d="M9 16.5C13.1421 16.5 16.5 13.1421 16.5 9C16.5 4.85786 13.1421 1.5 9 1.5C4.85786 1.5 1.5 4.85786 1.5 9C1.5 13.1421 4.85786 16.5 9 16.5Z" fill="#D3D9E4"/>
<path d="M8.14847 10.8117C8.15932 9.4278 8.55006 9.0045 9.23384 8.58663C9.69513 8.28815 10.0533 7.92455 10.0479 7.38186C10.0533 6.77405 9.57574 6.38331 8.98421 6.38331C8.63111 6.38331 8.28504 6.53333 8.07849 6.84262C7.87558 7.14647 7.60151 7.45784 7.23613 7.45784C6.84984 7.45784 6.52635 7.13228 6.64127 6.76348C6.95314 5.76261 7.88694 5.25452 8.99506 5.25452C10.4603 5.25452 11.4643 6.06855 11.4697 7.36015C11.4643 8.24474 11.0247 8.81999 10.3192 9.23786C9.6897 9.62317 9.42921 9.99762 9.41836 10.8117C9.41836 10.8656 9.37462 10.9093 9.32068 10.9093H8.24615C8.1922 10.9093 8.14847 10.8656 8.14847 10.8117ZM7.9748 12.4614C7.96938 12.0056 8.35469 11.6311 8.8214 11.6257C9.27183 11.6311 9.65714 12.0056 9.65714 12.4614C9.65714 12.9281 9.27183 13.308 8.8214 13.308C8.35469 13.308 7.96938 12.9281 7.9748 12.4614Z" fill="white"/>
</svg>
