<svg width="14" height="14" viewBox="0 0 14 14" fill="none" xmlns="http://www.w3.org/2000/svg">
<path d="M9 13L5 11.6L1.9 12.8C1.67778 12.8889 1.47222 12.864 1.28333 12.7253C1.09444 12.5867 1 12.4004 1 12.1667V2.83333C1 2.68889 1.04178 2.56111 1.12533 2.45C1.20889 2.33889 1.32267 2.25556 1.46667 2.2L5 1L9 2.4L12.1 1.2C12.3222 1.11111 12.5278 1.13622 12.7167 1.27533C12.9056 1.41444 13 1.60044 13 1.83333V11.1667C13 11.3111 12.9584 11.4389 12.8753 11.55C12.7922 11.6611 12.6782 11.7444 12.5333 11.8L9 13ZM8.33333 11.3667V3.56667L5.66667 2.63333V10.4333L8.33333 11.3667Z" fill="white"/>
</svg>
