<svg width="50" height="50" viewBox="0 0 50 50" fill="none" xmlns="http://www.w3.org/2000/svg">
<rect x="5.72461" y="17.9376" width="24.4208" height="31.9428" rx="2" transform="rotate(-16.084 5.72461 17.9376)" fill="#FDA81F"/>
<path d="M27.2656 11.7256C28.327 11.4196 29.4352 12.0324 29.7412 13.0938L37.4834 39.9424C37.7894 41.0037 37.1765 42.112 36.1152 42.418L33.8564 43.0693H18.4238C17.3193 43.0693 16.4239 42.1738 16.4238 41.0693V14.8506L27.2656 11.7256Z" fill="#BE7F1A"/>
<rect x="18.498" y="9.57605" width="24.4208" height="31.9428" rx="2" fill="#F6D155"/>
<rect x="22.0195" y="13.3513" width="6.4237" height="6.4237" rx="1" fill="white"/>
<rect x="22.0195" y="22.0678" width="13.232" height="1.51972" rx="0.759861" fill="white"/>
<rect x="22.0195" y="24.7876" width="13.232" height="1.51972" rx="0.759861" fill="white"/>
<rect x="22.0195" y="35.2033" width="7.12838" height="1.51972" rx="0.759861" fill="white"/>
<circle cx="36.8728" cy="34.1471" r="2.57593" fill="white"/>
</svg>
