<svg width="18" height="18" viewBox="0 0 18 18" fill="none" xmlns="http://www.w3.org/2000/svg">
<ellipse cx="9.04235" cy="9.06816" rx="7.90954" ry="7.93462" fill="url(#paint0_linear_4003_14016)"/>
<circle cx="8.88629" cy="8.88702" r="7.75348" fill="url(#paint1_linear_4003_14016)"/>
<circle cx="8.88867" cy="8.88702" r="6.31054" fill="url(#paint2_linear_4003_14016)"/>
<path d="M8.88672 2.57642C10.1634 2.57642 11.3506 2.95687 12.3438 3.60864C11.4896 3.189 10.526 2.95142 9.50586 2.95142C5.99797 2.95151 3.1543 5.74438 3.1543 9.18872C3.15447 11.7257 4.69828 13.9071 6.91309 14.8811C4.39474 14.0524 2.57617 11.6827 2.57617 8.88696C2.5762 5.40177 5.40152 2.57642 8.88672 2.57642Z" fill="url(#paint3_radial_4003_14016)"/>
<path d="M6.85742 12.4424V5.56073H9.47356C11.1822 5.56073 12.0187 6.52075 12.0187 7.79444C12.0187 9.06337 11.1771 10.0281 9.47356 10.0281H7.97283V12.4424H6.85742ZM7.97283 9.13466H9.36202C10.4419 9.13941 10.8932 8.5691 10.8932 7.79444C10.8932 7.01502 10.4419 6.45897 9.36202 6.45421H7.97283V9.13466Z" fill="currentColor"/>
<defs>
<linearGradient id="paint0_linear_4003_14016" x1="7.20581" y1="7.00508" x2="14.477" y2="14.9123" gradientUnits="userSpaceOnUse">
<stop stop-color="#747065" stop-opacity="0.4"/>
<stop offset="1"/>
</linearGradient>
<linearGradient id="paint1_linear_4003_14016" x1="4.36363" y1="2.50844" x2="14.0895" y2="15.0075" gradientUnits="userSpaceOnUse">
<stop stop-color="#FFF1B7"/>
<stop offset="1" stop-color="#FFDA06"/>
</linearGradient>
<linearGradient id="paint2_linear_4003_14016" x1="4.87523" y1="4.18135" x2="13.4532" y2="13.036" gradientUnits="userSpaceOnUse">
<stop stop-color="#FFCE3B" stop-opacity="0"/>
<stop offset="1" stop-opacity="0.03"/>
</linearGradient>
<radialGradient id="paint3_radial_4003_14016" cx="0" cy="0" r="1" gradientTransform="matrix(7.97595 4.78305 -3.79683 6.32472 3.56924 5.39011)" gradientUnits="userSpaceOnUse">
<stop stop-color="#D29E10"/>
<stop offset="1" stop-color="#6C5108" stop-opacity="0"/>
</radialGradient>
</defs>
</svg>
