<svg width="70" height="70" viewBox="0 0 70 70" fill="none" xmlns="http://www.w3.org/2000/svg">
<circle cx="35" cy="35" r="35" fill="white"/>
<path d="M29.0663 37.1588H40.9372C43.0319 37.192 45.0288 38.125 46.4894 39.753C47.95 41.3809 48.755 43.5706 48.7275 45.8414V48.5648C48.7275 49.1171 48.2798 49.5648 47.7275 49.5648H22.2761C21.7238 49.5648 21.2761 49.1171 21.2761 48.5648V45.8414C21.2486 43.5706 22.0535 41.3809 23.5142 39.753C24.9748 38.125 26.9717 37.192 29.0663 37.1588Z" fill="#A3A9B5"/>
<path d="M35.0009 34.4627C38.7185 34.4627 41.7322 31.449 41.7322 27.7313C41.7322 24.0137 38.7185 21 35.0009 21C31.2833 21 28.2695 24.0137 28.2695 27.7313C28.2695 31.449 31.2833 34.4627 35.0009 34.4627Z" fill="#A3A9B5"/>
</svg>
