<svg width="30" height="30" viewBox="0 0 30 30" fill="none" xmlns="http://www.w3.org/2000/svg">
<path d="M15 5.49875C17.0864 5.48132 19.0964 6.28788 20.5928 7.74191C22.0887 9.19581 22.9516 11.1807 22.9941 13.2663C22.9742 18.6473 18.1947 22.3317 16.0332 24.1237C15.7444 24.3626 15.3825 24.4957 15.0078 24.5007C14.6331 24.5056 14.2677 24.3822 13.9727 24.1511C11.7266 22.3694 7.03155 19.0318 7.00781 13.2663C7.04983 11.1805 7.91209 9.19495 9.4082 7.74094C10.9043 6.28692 12.9138 5.48119 15 5.49875ZM14.999 10.3269C13.2575 10.327 11.8458 11.7387 11.8457 13.4802C11.8457 15.2218 13.2575 16.6334 14.999 16.6335C16.7406 16.6335 18.1523 15.2218 18.1523 13.4802C18.1522 11.7387 16.7406 10.3269 14.999 10.3269Z" fill="#B9BFCA"/>
<circle cx="22.3438" cy="7.5542" r="2.67227" fill="#C4C9D4" stroke="white" stroke-width="1.2"/>
</svg>
