<svg width="12" height="12" viewBox="0 0 12 12" fill="none" xmlns="http://www.w3.org/2000/svg">
<path d="M7 1C7.1326 1.00003 7.25977 1.05271 7.35352 1.14648L8.70703 2.5H10C10.5515 2.5 11 2.9485 11 3.5V9C11 9.5515 10.5515 10 10 10H2C1.4485 10 1 9.5515 1 9V3.5C1 2.9485 1.4485 2.5 2 2.5H3.29297L4.64648 1.14648C4.74023 1.05271 4.8674 1.00003 5 1H7ZM6 3.86719C4.76303 3.86719 3.71777 4.91245 3.71777 6.14941C3.71791 7.38627 4.76311 8.43164 6 8.43164C7.23689 8.43164 8.28209 7.38627 8.28223 6.14941C8.28223 4.91245 7.23697 3.86719 6 3.86719ZM6 4.61719C6.82275 4.61719 7.53223 5.32666 7.53223 6.14941C7.53209 6.97206 6.82267 7.68164 6 7.68164C5.17733 7.68164 4.46791 6.97206 4.46777 6.14941C4.46777 5.32666 5.17725 4.61719 6 4.61719Z" fill="white"/>
</svg>
