<svg width="20" height="20" viewBox="0 0 20 20" fill="none" xmlns="http://www.w3.org/2000/svg">
<path d="M9.99231 3.88867C8.31734 3.88867 6.70012 4.54567 5.49442 5.72248C4.28873 6.89208 3.5812 8.48764 3.52344 10.1698C3.52344 11.2384 3.84111 12.2852 4.41868 13.1732C4.49088 13.2888 4.51254 13.4259 4.462 13.5559L3.8772 15.007C3.74003 15.3464 4.06492 15.6857 4.41146 15.563L5.9637 15.007C6.08644 14.9637 6.2164 14.9782 6.32469 15.0504C7.42209 15.7507 8.69998 16.1189 10.0068 16.1117C13.5805 16.1117 16.4756 13.4476 16.4756 10.1698C16.4179 8.48764 15.7103 6.89208 14.4974 5.72248C13.2845 4.54567 11.6745 3.88867 9.99231 3.88867Z" stroke="currentColor" stroke-width="1.2"/>
<path d="M7.37563 10.8015C7.81823 10.8015 8.17703 10.4427 8.17703 10.0001C8.17703 9.55753 7.81823 9.19873 7.37563 9.19873C6.93302 9.19873 6.57422 9.55753 6.57422 10.0001C6.57422 10.4427 6.93302 10.8015 7.37563 10.8015Z" fill="currentColor"/>
<path d="M10.0016 10.8015C10.4442 10.8015 10.803 10.4427 10.803 10.0001C10.803 9.55753 10.4442 9.19873 10.0016 9.19873C9.559 9.19873 9.2002 9.55753 9.2002 10.0001C9.2002 10.4427 9.559 10.8015 10.0016 10.8015Z" fill="currentColor"/>
<path d="M12.6276 10.8015C13.0702 10.8015 13.429 10.4427 13.429 10.0001C13.429 9.55753 13.0702 9.19873 12.6276 9.19873C12.185 9.19873 11.8262 9.55753 11.8262 10.0001C11.8262 10.4427 12.185 10.8015 12.6276 10.8015Z" fill="currentColor"/>
</svg>
