<svg width="18" height="18" viewBox="0 0 18 18" fill="none" xmlns="http://www.w3.org/2000/svg">
<path d="M12.551 3.08441H14.2984C14.492 3.08441 14.6778 3.16141 14.8147 3.29846C14.9516 3.43551 15.0285 3.6214 15.0285 3.81522V14.926C15.0285 15.1198 14.9516 15.3057 14.8147 15.4427C14.6778 15.5798 14.492 15.6568 14.2984 15.6568H3.69695C3.60104 15.6569 3.50605 15.638 3.41742 15.6013C3.3288 15.5646 3.24827 15.5108 3.18045 15.4429C3.11263 15.3751 3.05885 15.2945 3.02219 15.2058C2.98553 15.1171 2.96671 15.022 2.9668 14.926V3.81522C2.96671 3.71922 2.98553 3.62415 3.02219 3.53544C3.05885 3.44674 3.11263 3.36614 3.18045 3.29826C3.24827 3.23038 3.3288 3.17655 3.41742 3.13986C3.50605 3.10316 3.60104 3.08432 3.69695 3.08441H5.23076" fill="#D3D9E4"/>
<path d="M4.95313 2.62709C4.95313 2.47034 5.0802 2.34326 5.23695 2.34326H12.766C12.9227 2.34326 13.0498 2.47034 13.0498 2.62709C13.0498 3.3844 12.7492 4.11069 12.2142 4.64618C11.6792 5.18168 10.9535 5.48252 10.1969 5.48252H7.80523C7.04873 5.48231 6.32329 5.18138 5.78844 4.64591C5.25359 4.11043 4.95312 3.38426 4.95313 2.62709Z" fill="#B4BECF"/>
<path d="M6.63672 12.1265H11.3591" stroke="white" stroke-width="1.2" stroke-miterlimit="10" stroke-linecap="round"/>
</svg>
