<svg width="36" height="36" viewBox="0 0 36 36" fill="none" xmlns="http://www.w3.org/2000/svg">
<path d="M26.7833 8.32727H12.2829C11.0566 8.32727 10.0625 9.32136 10.0625 10.5476V25.1843C10.0625 26.4106 11.0566 27.4046 12.2829 27.4046H26.7833C28.0096 27.4046 29.0037 26.4106 29.0037 25.1843V10.5476C29.0037 9.32136 28.0096 8.32727 26.7833 8.32727Z" fill="#FDA81F"/>
<path d="M24.549 6.3335H10.0485C8.82222 6.3335 7.82812 7.32759 7.82812 8.55386V23.1905C7.82812 24.4168 8.82222 25.4109 10.0485 25.4109H24.549C25.7752 25.4109 26.7693 24.4168 26.7693 23.1905V8.55386C26.7693 7.32759 25.7752 6.3335 24.549 6.3335Z" fill="#F6D155"/>
<path d="M11.7305 11.1573H20.5847" stroke="white" stroke-width="1.5" stroke-linecap="round" stroke-linejoin="round"/>
<path d="M11.7305 14.8134H17.0371" stroke="white" stroke-width="1.5" stroke-linecap="round" stroke-linejoin="round"/>
<path d="M15.2667 19.095C15.1663 18.9896 15.047 18.906 14.9157 18.849C14.7844 18.7919 14.6437 18.7626 14.5015 18.7626C14.3593 18.7626 14.2186 18.7919 14.0873 18.849C13.956 18.906 13.8367 18.9896 13.7363 19.095L13.4561 19.3884L13.1759 19.095C12.9729 18.8825 12.6976 18.7631 12.4105 18.7631C12.1235 18.7631 11.8481 18.8825 11.6452 19.095C11.4422 19.3076 11.3281 19.5959 11.3281 19.8965C11.3281 20.197 11.4422 20.4853 11.6452 20.6979L11.9254 20.9913L13.4573 22.5925L14.9877 20.99L15.2679 20.6966C15.3683 20.5914 15.448 20.4665 15.5023 20.3291C15.5566 20.1916 15.5845 20.0443 15.5844 19.8956C15.5843 19.7468 15.5561 19.5995 15.5016 19.4622C15.4471 19.3248 15.3673 19.2 15.2667 19.095Z" fill="white" stroke="white" stroke-width="0.3" stroke-linejoin="round"/>
<rect x="16.1562" y="24.3325" width="19.1366" height="9.19071" rx="4.59536" transform="rotate(-15 16.1562 24.3325)" fill="currentColor"/>
<path d="M30.0575 27.4035L29.0391 23.6027L31.7215 22.8839L31.8551 23.3826L29.8226 23.9272L30.1307 25.0769L32.0214 24.5703L32.1536 25.0638L30.2629 25.5704L30.5738 26.7306L32.6299 26.1797L32.7635 26.6784L30.0575 27.4035Z" fill="white"/>
<path d="M26.2098 28.4343L25.1914 24.6334L25.8413 24.4593L26.3266 26.2705L26.3798 26.2562L27.6847 23.9653L28.5001 23.7469L27.2334 25.9206L29.5244 27.5461L28.7386 27.7567L26.9076 26.4299L26.5433 27.0789L26.8598 28.2601L26.2098 28.4343Z" fill="white"/>
<path d="M24.3218 24.866L25.3402 28.6669L24.6903 28.841L23.6719 25.0402L24.3218 24.866Z" fill="white"/>
<path d="M21.4403 29.7119L20.4219 25.911L21.0718 25.7369L21.9566 29.039L23.8886 28.5213L24.0223 29.02L21.4403 29.7119Z" fill="white"/>
</svg>
