<svg width="18" height="18" viewBox="0 0 18 18" fill="none" xmlns="http://www.w3.org/2000/svg">
<path d="M12.8374 6.97604H12.0297V5.7845C12.0297 4.98115 11.7105 4.21074 11.1425 3.64269C10.5744 3.07464 9.804 2.75549 9.00065 2.75549C8.19731 2.75549 7.4269 3.07464 6.85885 3.64269C6.2908 4.21074 5.97165 4.98115 5.97165 5.7845V6.97604H5.15891C4.83757 6.97604 4.52941 7.10369 4.30219 7.33091C4.07497 7.55813 3.94727 7.8663 3.94727 8.18763V14.0328C3.94727 14.3542 4.07497 14.6623 4.30219 14.8896C4.52941 15.1168 4.83757 15.2444 5.15891 15.2444H12.8416C13.1629 15.2444 13.4711 15.1168 13.6983 14.8896C13.9255 14.6623 14.0532 14.3542 14.0532 14.0328V8.18763C14.053 7.86636 13.9253 7.55829 13.6981 7.33112C13.4709 7.10395 13.1628 6.97626 12.8416 6.97604H12.8374ZM7.18329 5.7845C7.18329 5.30249 7.37474 4.84025 7.71557 4.49942C8.0564 4.15859 8.51865 3.96714 9.00065 3.96714C9.48266 3.96714 9.94491 4.15859 10.2857 4.49942C10.6266 4.84025 10.818 5.30249 10.818 5.7845V6.97604H7.18329V5.7845ZM9.60647 12.1224C9.60647 12.2831 9.54262 12.4372 9.42901 12.5508C9.3154 12.6644 9.16132 12.7282 9.00065 12.7282C8.83998 12.7282 8.6859 12.6644 8.57229 12.5508C8.45868 12.4372 8.39483 12.2831 8.39483 12.1224V10.1031C8.39339 9.94242 8.45582 9.78772 8.56841 9.67309C8.68099 9.55846 8.83456 9.49324 8.99523 9.49179C9.1559 9.49035 9.3105 9.55283 9.42513 9.66542C9.53976 9.77801 9.60503 9.93152 9.60647 10.0922V12.1224Z" fill="#A3A9B5"/>
</svg>
