<svg width="14" height="14" viewBox="0 0 14 14" fill="none" xmlns="http://www.w3.org/2000/svg">
<circle cx="7" cy="7" r="6.42188" fill="#A3A9B5"/>
<path fill-rule="evenodd" clip-rule="evenodd" d="M6.99275 7.76685C6.61274 7.76685 6.30469 7.45879 6.30469 7.07879L6.30469 4.24464C6.30469 3.86464 6.61274 3.55659 6.99275 3.55659C7.37275 3.55659 7.6808 3.86464 7.6808 4.24464L7.6808 7.07879C7.6808 7.45879 7.37275 7.76685 6.99275 7.76685Z" fill="white"/>
<path d="M7.77469 9.52284C7.77469 9.95035 7.42813 10.2969 7.00063 10.2969C6.57312 10.2969 6.22656 9.95035 6.22656 9.52284C6.22656 9.09534 6.57312 8.74878 7.00063 8.74878C7.42813 8.74878 7.77469 9.09534 7.77469 9.52284Z" fill="white"/>
</svg>
