<svg width="30" height="30" viewBox="0 0 30 30" fill="none" xmlns="http://www.w3.org/2000/svg">
<path d="M24.5177 17.3851C24.4559 17.1024 24.3057 16.8551 24.076 16.6784L22.8834 15.7773C22.9011 15.5653 22.9099 15.3622 22.9099 15.1501C22.9099 14.7261 22.8746 14.3109 22.8039 13.8957L23.917 13.0565C24.1467 12.8798 24.3057 12.6325 24.3587 12.3498C24.4117 12.0671 24.3675 11.7756 24.2262 11.5282L22.4682 8.48052C22.3269 8.23317 22.0972 8.04766 21.8234 7.95932C21.5583 7.87098 21.258 7.87981 20.993 7.99465L19.5354 8.61303C19.0407 8.25967 18.5018 7.95932 17.9453 7.7208L17.7686 6.29854C17.7333 6.01585 17.5919 5.75084 17.3799 5.56532C17.1679 5.37981 16.8852 5.2738 16.6025 5.2738H13.0866C12.7951 5.2738 12.5212 5.37981 12.3092 5.56532C12.0972 5.75084 11.9559 6.01585 11.9205 6.29854L11.7438 7.71197C11.1166 7.97699 10.5248 8.31268 9.97706 8.72787L8.83749 8.25084C8.57247 8.14483 8.28095 8.12716 8.01593 8.2155C7.75091 8.30384 7.52123 8.48935 7.37105 8.7367L5.6131 11.7844C5.47176 12.0318 5.41876 12.3233 5.48059 12.606C5.5336 12.8887 5.69261 13.136 5.92229 13.3127L6.86752 14.0282C6.76151 14.7968 6.76151 15.5742 6.87635 16.3516L6.07247 16.9523C5.84279 17.1289 5.68377 17.3763 5.63077 17.659C5.56893 17.9417 5.63077 18.2332 5.76328 18.4805L7.53007 21.5371C7.67141 21.7844 7.90109 21.9611 8.17494 22.0494C8.43996 22.1378 8.74031 22.1289 9.00533 22.0141L10.0036 21.5901C10.6484 22.0759 11.3463 22.4558 12.106 22.7296L12.2209 23.7014C12.2562 23.9841 12.3976 24.2491 12.6096 24.4346C12.8216 24.6201 13.1043 24.7261 13.387 24.7261H16.9029C17.1856 24.7261 17.4594 24.6201 17.6803 24.4346C17.8923 24.2491 18.0336 23.9841 18.0689 23.7014L18.2191 22.4646C18.8817 22.1554 19.5 21.7667 20.0566 21.2897L21.1432 21.7491C21.4082 21.8639 21.7085 21.8728 21.9824 21.7844C22.2562 21.6961 22.4859 21.5017 22.6273 21.2544L24.3852 18.2155C24.5265 17.9682 24.5795 17.6766 24.5177 17.394V17.3851Z" stroke="currentColor" stroke-width="1.8" stroke-miterlimit="10"/>
<path d="M14.9948 18.2155C16.7707 18.2155 18.2104 16.7759 18.2104 15C18.2104 13.2241 16.7707 11.7844 14.9948 11.7844C13.2189 11.7844 11.7793 13.2241 11.7793 15C11.7793 16.7759 13.2189 18.2155 14.9948 18.2155Z" stroke="currentColor" stroke-width="1.8" stroke-miterlimit="10"/>
</svg>
