<svg width="30" height="30" viewBox="0 0 30 30" fill="none" xmlns="http://www.w3.org/2000/svg">
<path d="M13.8545 6.53589C15.3126 6.53589 16.7379 6.96825 17.9502 7.77831C19.1626 8.58837 20.1075 9.73974 20.6655 11.0868C21.2234 12.4339 21.3694 13.9162 21.085 15.3462C20.8005 16.7763 20.0984 18.0899 19.0674 19.1209C18.0364 20.1519 16.7228 20.854 15.2928 21.1384C13.8627 21.4229 12.3804 21.2769 11.0333 20.7189C9.68627 20.161 8.5349 19.2161 7.72485 18.0037C6.91479 16.7914 6.48242 15.3661 6.48242 13.908C6.48242 12.9399 6.67311 11.9812 7.04359 11.0868C7.41407 10.1924 7.9571 9.37969 8.64166 8.69513C10.0242 7.31259 11.8993 6.53589 13.8545 6.53589Z" stroke="currentColor" stroke-width="1.8" stroke-linecap="round" stroke-linejoin="round"/>
<path d="M19.0225 19.1608L23.6775 23.8842" stroke="currentColor" stroke-width="1.8" stroke-miterlimit="10" stroke-linecap="round"/>
</svg>
