<svg width="110" height="32" viewBox="0 0 110 32" fill="none" xmlns="http://www.w3.org/2000/svg">
<path d="M53.3603 12.8696C51.9468 11.8094 50.1903 11.1821 48.2874 11.1821C46.3846 11.1821 44.6281 11.8094 43.2145 12.8696V11.1821H39.8145V28.126H43.2145V15.4813C43.5073 15.0443 45.0463 13.6579 47.9905 13.7479C51.1856 13.8461 53.3603 15.9142 53.3603 19.653V28.126H56.7604V19.653C56.7604 16.8782 55.4242 14.4128 53.3603 12.8696Z" fill="currentColor"/>
<path d="M34.95 11.1821V12.8675C33.5365 11.8094 31.78 11.1821 29.8771 11.1821C25.1994 11.1821 21.4062 14.9732 21.4062 19.653C21.4062 24.3328 25.1994 28.126 29.8771 28.126C31.78 28.126 33.5365 27.4986 34.95 26.4385V28.126H38.3501V11.1821H34.95ZM33.3859 23.1618C30.7616 25.784 27.0667 26.3402 25.1283 24.4018C23.192 22.4655 23.7482 18.7685 26.3704 16.1463C28.9926 13.522 32.6896 12.9679 34.6259 14.9042C34.743 15.0213 34.8517 15.1447 34.95 15.2764C36.0834 16.7548 36.0353 18.9922 34.95 21.054C34.559 21.7942 34.0362 22.5115 33.3859 23.1618Z" fill="currentColor"/>
<path d="M71.7703 7V12.8675C70.3568 11.8094 68.6003 11.1821 66.6974 11.1821C62.0197 11.1821 58.2266 14.9732 58.2266 19.653C58.2266 24.3328 62.0197 28.1259 66.6974 28.1259C68.6003 28.1259 70.3568 27.4986 71.7703 26.4385V28.1259H75.1704V7H71.7703ZM70.2062 23.1618C67.582 25.784 63.8871 26.3402 61.9486 24.4018C60.0123 22.4655 60.5685 18.7685 63.1907 16.1463C65.8129 13.522 69.5099 12.9679 71.4462 14.9042C71.5633 15.0213 71.6721 15.1447 71.7703 15.2764C72.9037 16.7548 72.8556 18.9922 71.7703 21.054C71.3793 21.7942 70.8565 22.5115 70.2062 23.1618Z" fill="currentColor"/>
<path d="M11.473 11.1821C9.5701 11.1821 7.81361 11.8094 6.40006 12.8675V7H3V28.1259H6.40006V26.4385C7.81361 27.4986 9.5701 28.1259 11.473 28.1259C16.1507 28.1259 19.9438 24.3328 19.9438 19.653C19.9438 14.9732 16.1507 11.1821 11.473 11.1821ZM16.5438 21.054C16.1527 21.7942 15.63 22.5115 14.9797 23.1618C12.3554 25.784 8.66049 26.3402 6.72208 24.4018C4.78576 22.4655 5.34198 18.7685 7.96417 16.1463C10.5864 13.522 14.2833 12.9679 16.2197 14.9042C16.3368 15.0213 16.4455 15.1447 16.5438 15.2764C17.6771 16.7548 17.629 18.9922 16.5438 21.054Z" fill="currentColor"/>
<path d="M97.2635 13.6642C96.8558 14.072 96.5024 14.5111 96.195 14.9711V11.1821H92.7949V28.126H96.195V19.998C96.195 17.2587 99.2019 15.038 102.911 15.038C103.026 15.038 103.141 15.0401 103.254 15.0443V11.1821C101.086 11.1821 98.9175 12.0102 97.2635 13.6642Z" fill="currentColor"/>
<path d="M105.627 28.126C106.938 28.126 108.001 27.0634 108.001 25.7526C108.001 24.4419 106.938 23.3793 105.627 23.3793C104.316 23.3793 103.254 24.4419 103.254 25.7526C103.254 27.0634 104.316 28.126 105.627 28.126Z" fill="#FFA20C"/>
<path d="M80.8922 24.3558L91.3349 13.913C91.1802 13.7437 91.0191 13.5827 90.8498 13.4258C90.6783 13.269 90.5006 13.1184 90.3165 12.9763C88.88 11.8513 87.0733 11.1821 85.1077 11.1821C80.4279 11.1821 76.6348 14.9732 76.6348 19.6551C76.6348 24.337 80.4279 28.126 85.1056 28.126C87.4476 28.126 89.5638 27.1787 91.0965 25.6439L88.3656 22.913C85.9922 25.1169 82.8494 25.6962 80.8922 24.3537V24.3558ZM81.5989 15.6591C83.2362 14.0218 85.2938 13.1895 87.0796 13.269L79.2068 21.1418C79.1273 19.3561 79.9595 17.2985 81.5968 15.6591H81.5989ZM79.5643 22.7415L88.6793 13.6266C88.903 13.7228 89.1163 13.8399 89.317 13.9758L79.9135 23.3772C79.7776 23.1764 79.6605 22.9631 79.5643 22.7394V22.7415Z" fill="currentColor"/>
</svg>
