<svg width="30" height="30" viewBox="0 0 30 30" fill="none" xmlns="http://www.w3.org/2000/svg">
<path d="M18.8418 6.88443C19.003 6.88456 19.1627 6.91631 19.3115 6.97818C19.4605 7.04016 19.5962 7.1314 19.71 7.24576C19.8237 7.3601 19.9134 7.49596 19.9746 7.64517C20.0359 7.79442 20.0671 7.95455 20.0664 8.11588L20.1768 22.4801L20.2764 22.6618C20.2982 23.1405 21.4573 23.6033 21.749 23.984H6.69629C6.53463 23.9842 6.37399 23.9531 6.22461 23.8913C6.0752 23.8294 5.93951 23.7381 5.8252 23.6237C5.71088 23.5093 5.61937 23.3738 5.55762 23.2243C5.49588 23.0748 5.4646 22.9143 5.46484 22.7526V8.11588C5.46419 7.95461 5.49544 7.79438 5.55664 7.64517C5.6179 7.49591 5.70846 7.36012 5.82227 7.24576C5.93604 7.13147 6.07084 7.04013 6.21973 6.97818C6.36855 6.91626 6.52826 6.88461 6.68945 6.88443H18.8418ZM9.10352 15.8571C8.6893 15.8571 8.35352 16.1929 8.35352 16.6071C8.35358 17.0212 8.68934 17.3571 9.10352 17.3571H13.4658C13.8799 17.3569 14.2158 17.0211 14.2158 16.6071C14.2158 16.193 13.8799 15.8573 13.4658 15.8571H9.10352ZM9.10352 11.6012C8.6893 11.6012 8.35352 11.937 8.35352 12.3512C8.35358 12.7654 8.68934 13.1012 9.10352 13.1012H16.4688C16.8828 13.1011 17.2187 12.7653 17.2188 12.3512C17.2188 11.9371 16.8829 11.6014 16.4688 11.6012H9.10352Z" fill="#B9BFCA"/>
<path d="M20.0586 12.8197H21.7729C22.7198 12.8197 23.4873 13.5873 23.4873 14.5341V22.2697C23.4873 23.2165 22.7198 23.984 21.7729 23.984C20.8261 23.984 20.0586 23.2165 20.0586 22.2697V12.8197Z" fill="#D2D6DD"/>
</svg>
