<svg width="30" height="30" viewBox="0 0 30 30" fill="none" xmlns="http://www.w3.org/2000/svg">
<path d="M14.9883 5.8335C17.5115 5.8335 19.9267 6.81835 21.7461 8.5835C23.5654 10.3378 24.6271 12.7312 24.7139 15.2544C24.7139 20.171 20.3704 24.1675 15.0098 24.1675C13.0498 24.1782 11.1332 23.626 9.4873 22.5757C9.32486 22.4674 9.12942 22.4453 8.94531 22.5103L6.61719 23.3442C6.09737 23.5283 5.60967 23.0192 5.81543 22.5103L6.69336 20.3335C6.76893 20.1388 6.73603 19.9334 6.62793 19.7603C5.76156 18.4282 5.28516 16.8572 5.28516 15.2544C5.37188 12.7313 6.43282 10.3378 8.24121 8.5835C10.0497 6.81832 12.4759 5.83354 14.9883 5.8335ZM11.2246 13.7485C10.5333 13.7485 9.97266 14.3092 9.97266 15.0005C9.97282 15.6916 10.5334 16.2515 11.2246 16.2515C11.9156 16.2513 12.4754 15.6915 12.4756 15.0005C12.4756 14.3093 11.9157 13.7487 11.2246 13.7485ZM15.1484 13.7485C14.4572 13.7485 13.8965 14.3092 13.8965 15.0005C13.8966 15.6916 14.4573 16.2515 15.1484 16.2515C15.8395 16.2513 16.3993 15.6915 16.3994 15.0005C16.3994 14.3093 15.8396 13.7487 15.1484 13.7485ZM19.0723 13.7485C18.381 13.7485 17.8203 14.3092 17.8203 15.0005C17.8205 15.6916 18.3811 16.2515 19.0723 16.2515C19.7633 16.2513 20.3231 15.6915 20.3232 15.0005C20.3232 14.3093 19.7634 13.7487 19.0723 13.7485Z" fill="#4C545B"/>
</svg>
