<svg width="18" height="18" viewBox="0 0 18 18" fill="none" xmlns="http://www.w3.org/2000/svg">
<g clip-path="url(#clip0_4012_23885)">
<path d="M8.15537 3.05823C9.15414 3.05823 10.1305 3.3544 10.9609 3.90929C11.7914 4.46418 12.4387 5.25287 12.8209 6.17561C13.2031 7.09836 13.3031 8.11373 13.1082 9.09331C12.9134 10.0729 12.4324 10.9727 11.7262 11.6789C11.0199 12.3852 10.1201 12.8661 9.14056 13.061C8.16097 13.2558 7.1456 13.1558 6.22286 12.7736C5.30011 12.3914 4.51142 11.7442 3.95653 10.9137C3.40164 10.0832 3.10547 9.1069 3.10547 8.10813C3.10547 7.44497 3.23609 6.7883 3.48987 6.17561C3.74365 5.56293 4.11562 5.00624 4.58455 4.53731C5.53159 3.59027 6.81605 3.05823 8.15537 3.05823Z" stroke="currentColor" stroke-width="1.5" stroke-linecap="round" stroke-linejoin="round"/>
<path d="M11.6963 11.7063L14.885 14.9418" stroke="currentColor" stroke-width="1.5" stroke-miterlimit="10" stroke-linecap="round"/>
</g>
<defs>
<clipPath id="clip0_4012_23885">
<rect width="18" height="18" fill="white"/>
</clipPath>
</defs>
</svg>
