<svg width="20" height="20" viewBox="0 0 20 20" fill="none" xmlns="http://www.w3.org/2000/svg">
<g clip-path="url(#clip0_350_9490)">
<path d="M12.1868 11.2311C12.2567 11.183 12.3372 11.1537 12.4208 11.1458C12.5045 11.138 12.5887 11.1518 12.6659 11.1861L15.6424 12.5641C15.7427 12.6084 15.8264 12.6851 15.881 12.7827C15.9356 12.8803 15.9582 12.9935 15.9453 13.1054C15.8473 13.8627 15.4864 14.5573 14.9298 15.0602C14.3733 15.5631 13.6589 15.84 12.9196 15.8394C10.6431 15.8394 8.45977 14.9049 6.85003 13.2415C5.24028 11.5781 4.33594 9.32206 4.33594 6.96965C4.33537 6.20568 4.60334 5.4675 5.09001 4.89239C5.57668 4.31728 6.24892 3.94439 6.98172 3.84306C7.09005 3.82976 7.19963 3.85307 7.29406 3.90951C7.38849 3.96594 7.4627 4.05246 7.50557 4.15611L8.83919 7.23444C8.87196 7.3135 8.8853 7.39971 8.87804 7.48539C8.87077 7.57107 8.84312 7.65357 8.79754 7.72554L7.44877 9.38275C7.40093 9.45735 7.37264 9.5435 7.36666 9.63278C7.36069 9.72206 7.37724 9.81142 7.41469 9.89211C7.93665 10.9963 9.04116 12.1239 10.1129 12.658C10.1914 12.6966 10.2782 12.7133 10.3649 12.7065C10.4516 12.6998 10.535 12.6698 10.607 12.6196L12.1868 11.2311Z" stroke="currentColor" stroke-width="1.2" stroke-linecap="round" stroke-linejoin="round"/>
</g>
<defs>
<clipPath id="clip0_350_9490">
<rect width="20" height="20" fill="white"/>
</clipPath>
</defs>
</svg>
