<svg width="375" height="84" viewBox="0 0 375 84" fill="none" xmlns="http://www.w3.org/2000/svg">
<rect width="375" height="84" fill="currentColor"/>
<path d="M37.2402 14.5195C37.6832 14.155 38.3226 14.155 38.7656 14.5195L46.248 20.6787C46.525 20.9067 46.6855 21.2468 46.6855 21.6055V30.9082C46.6853 31.5708 46.148 32.1074 45.4854 32.1074H40.3887V28.4121C40.3887 27.0945 39.3205 26.0264 38.0029 26.0264C36.6853 26.0264 35.6172 27.0945 35.6172 28.4121V32.1074H30.5205C29.8579 32.1074 29.3205 31.5708 29.3203 30.9082V21.6055C29.3203 21.2468 29.4809 20.9067 29.7578 20.6787L37.2402 14.5195Z" fill="white"/>
<text fill="white" style="white-space: pre" xml:space="preserve" font-family="Pretendard" font-size="10" letter-spacing="0em"><tspan x="33.6787" y="49.6572">&#xd648;</tspan></text>
<path d="M112.082 12.3987C112.637 12.079 113.32 12.0781 113.876 12.3968L121.727 16.9017C122.286 17.2226 122.631 17.8184 122.631 18.4632V27.5003C122.631 28.143 122.288 28.7372 121.731 29.0589L113.881 33.597C113.323 33.9194 112.635 33.9185 112.077 33.595L104.264 29.0589C103.709 28.7368 103.367 28.1438 103.367 27.5023V18.4612C103.367 17.8177 103.711 17.223 104.269 16.9017L112.082 12.3987ZM120.518 18.8548C120.273 18.4541 119.75 18.3271 119.35 18.5716L112.949 22.4778L106.217 18.5628C105.811 18.3269 105.291 18.464 105.055 18.8694C104.819 19.275 104.956 19.7955 105.361 20.0316L112.109 23.9564V31.0931C112.11 31.562 112.49 31.9424 112.959 31.9427C113.428 31.9427 113.809 31.5622 113.81 31.0931V23.9437L120.235 20.0228C120.636 19.7782 120.762 19.2554 120.518 18.8548Z" fill="#4C545B"/>
<text fill="#4C545B" style="white-space: pre" xml:space="preserve" font-family="Pretendard" font-size="10" letter-spacing="0em"><tspan x="99.875" y="49.6572">MY &#xb8f8;</tspan></text>
<rect x="179.236" y="16.1555" width="15.7261" height="15.1889" rx="1" stroke="#4C545B" stroke-width="2"/>
<path d="M178.236 17.1555C178.236 16.0509 179.132 15.1555 180.236 15.1555H193.962C195.067 15.1555 195.962 16.0509 195.962 17.1555V21.3482H178.236V17.1555Z" fill="#4C545B"/>
<path d="M182.145 14.0933C182.145 13.5212 182.608 13.0574 183.18 13.0574C183.753 13.0574 184.216 13.5212 184.216 14.0933V17.254H182.145V14.0933Z" fill="#4C545B"/>
<path d="M189.983 14.0933C189.983 13.5212 190.447 13.0574 191.019 13.0574C191.591 13.0574 192.055 13.5212 192.055 14.0933V17.254H189.983V14.0933Z" fill="#4C545B"/>
<text fill="#4C545B" style="white-space: pre" xml:space="preserve" font-family="Pretendard" font-size="10" letter-spacing="0em"><tspan x="178.357" y="49.6572">&#xc608;&#xc57d;</tspan></text>
<path d="M261.988 13.8325C264.512 13.8325 266.927 14.8184 268.746 16.5835C270.565 18.3378 271.627 20.7312 271.714 23.2544C271.714 28.171 267.37 32.1675 262.01 32.1675C260.05 32.1782 258.133 31.626 256.487 30.5757C256.325 30.4674 256.129 30.4453 255.945 30.5103L253.617 31.3442C253.097 31.5283 252.61 31.0192 252.815 30.5103L253.693 28.3335C253.769 28.1388 253.736 27.9334 253.628 27.7603C252.762 26.4282 252.285 24.8572 252.285 23.2544C252.372 20.7313 253.433 18.3378 255.241 16.5835C257.05 14.8183 259.476 13.8326 261.988 13.8325ZM258.225 21.7485C257.533 21.7485 256.973 22.3092 256.973 23.0005C256.973 23.6916 257.533 24.2515 258.225 24.2515C258.916 24.2513 259.475 23.6915 259.476 23.0005C259.476 22.3093 258.916 21.7487 258.225 21.7485ZM262.148 21.7485C261.457 21.7485 260.896 22.3092 260.896 23.0005C260.897 23.6916 261.457 24.2515 262.148 24.2515C262.839 24.2513 263.399 23.6915 263.399 23.0005C263.399 22.3093 262.84 21.7487 262.148 21.7485ZM266.072 21.7485C265.381 21.7485 264.82 22.3092 264.82 23.0005C264.82 23.6916 265.381 24.2515 266.072 24.2515C266.763 24.2513 267.323 23.6915 267.323 23.0005C267.323 22.3093 266.763 21.7487 266.072 21.7485Z" fill="#4C545B"/>
<text fill="#4C545B" style="white-space: pre" xml:space="preserve" font-family="Pretendard" font-size="10" letter-spacing="0em"><tspan x="253.357" y="49.6572">&#xcc44;&#xd305;</tspan></text>
<rect x="328.323" y="14.3225" width="8" height="8" rx="1.6" fill="#4C545B"/>
<rect x="328.323" y="23.6775" width="8" height="8" rx="1.6" fill="#4C545B"/>
<rect x="337.677" y="14.3225" width="8" height="8" rx="1.6" fill="#4C545B"/>
<rect x="337.677" y="23.6775" width="8" height="8" rx="1.6" fill="#4C545B"/>
<text fill="#4C545B" style="white-space: pre" xml:space="preserve" font-family="Pretendard" font-size="10" letter-spacing="0em"><tspan x="324.036" y="49.6572">&#xb354;&#xbcf4;&#xae30;</tspan></text>
</svg>
