<svg width="46" height="46" viewBox="0 0 46 46" fill="none" xmlns="http://www.w3.org/2000/svg">
<path d="M23.3148 5.13462H22.4715C19.2605 5.17933 16.196 6.48585 13.9405 8.77176C11.685 11.0577 10.4197 14.1394 10.418 17.3507V17.4274C10.4504 18.9617 10.7865 20.4745 11.4068 21.8783C12.0271 23.2821 12.9193 24.5491 14.032 25.6062C18.0417 29.6741 20.768 32.8665 22.6417 39.788L22.8932 40.8736H23.1063L23.3578 39.788C25.2315 32.8665 27.9578 29.668 31.9674 25.6062C33.081 24.5482 33.9738 23.28 34.5942 21.8748C35.2145 20.4696 35.5501 18.9554 35.5815 17.4197V17.343C35.5798 14.1317 34.3144 11.05 32.0589 8.76409C29.8034 6.47818 26.739 5.17167 23.528 5.12695H22.6846" fill="url(#paint0_linear_4124_31048)"/>
<path d="M23.3148 5.13462H22.4715C19.2605 5.17933 16.196 6.48585 13.9405 8.77176C11.685 11.0577 10.4197 14.1394 10.418 17.3507V17.4274C10.4504 18.9617 10.7865 20.4745 11.4068 21.8783C12.0271 23.2821 12.9193 24.5491 14.032 25.6062C18.0417 29.6741 20.768 32.8665 22.6417 39.788L22.8932 40.8736H23.1063L23.3578 39.788C25.2315 32.8665 27.9578 29.668 31.9674 25.6062C33.081 24.5482 33.9738 23.28 34.5942 21.8748C35.2145 20.4696 35.5501 18.9554 35.5815 17.4197V17.343C35.5798 14.1317 34.3144 11.05 32.0589 8.76409C29.8034 6.47818 26.739 5.17167 23.528 5.12695H22.6846" stroke="currentColor" stroke-linejoin="round"/>
<path d="M23.1044 12.8505C24.0236 12.8505 24.9221 13.123 25.6864 13.6337C26.4507 14.1444 27.0463 14.8702 27.3981 15.7194C27.7498 16.5686 27.8419 17.503 27.6625 18.4045C27.4832 19.306 27.0406 20.1341 26.3906 20.7841C25.7407 21.434 24.9126 21.8766 24.0111 22.056C23.1096 22.2353 22.1751 22.1433 21.3259 21.7915C20.4767 21.4398 19.7509 20.8441 19.2403 20.0798C18.7296 19.3156 18.457 18.417 18.457 17.4979C18.457 16.2653 18.9467 15.0832 19.8182 14.2117C20.6898 13.3401 21.8719 12.8505 23.1044 12.8505Z" fill="white"/>
<defs>
<linearGradient id="paint0_linear_4124_31048" x1="22.9997" y1="40.8736" x2="22.9997" y2="5.12695" gradientUnits="userSpaceOnUse">
<stop stop-color="#666666"/>
<stop offset="1"/>
</linearGradient>
</defs>
</svg>
