<svg width="30" height="30" viewBox="0 0 30 30" fill="none" xmlns="http://www.w3.org/2000/svg">
<path d="M14.082 4.3987C14.6371 4.07892 15.3203 4.07804 15.876 4.39674L23.7266 8.90163C24.2858 9.22254 24.6309 9.81838 24.6309 10.4632V19.5003C24.6308 20.143 24.2879 20.7372 23.7314 21.0589L15.8809 25.596C15.3226 25.9186 14.6348 25.9185 14.0771 25.595L6.26367 21.0589C5.70883 20.7368 5.36719 20.1438 5.36719 19.5022V10.4612C5.36719 9.81764 5.71098 9.22299 6.26855 8.90163L14.082 4.3987ZM22.5176 10.8548C22.273 10.4541 21.7503 10.327 21.3496 10.5715L14.9492 14.4778L8.2168 10.5628C7.81116 10.3269 7.29082 10.464 7.05469 10.8694C6.81902 11.275 6.95602 11.7954 7.36133 12.0315L14.1094 15.9563V23.093C14.1097 23.562 14.49 23.9423 14.959 23.9426C15.4282 23.9426 15.8092 23.5622 15.8096 23.093V15.9436L22.2354 12.0227C22.6359 11.7782 22.7619 11.2554 22.5176 10.8548Z" fill="white"/>
</svg>
