<svg width="24" height="24" viewBox="0 0 24 24" fill="none" xmlns="http://www.w3.org/2000/svg">
<path d="M18.2442 4.67133L11.5302 7.29405H8.25991C7.38581 7.26667 6.53664 7.58793 5.89921 8.18721C5.26179 8.78648 4.88834 9.61468 4.86099 10.4896C4.83364 11.3644 5.15461 12.2144 5.75335 12.8524C6.35209 13.4904 7.17955 13.8641 8.05366 13.8915C8.12242 13.8915 8.19115 13.8915 8.25991 13.8915H11.5302L18.2442 16.4832C18.3388 16.5296 18.4437 16.5513 18.549 16.5461C18.6543 16.5409 18.7565 16.5091 18.8461 16.4536C18.9358 16.3981 19.01 16.3207 19.0616 16.2287C19.1132 16.1367 19.1406 16.0331 19.1413 15.9276V5.22774C19.1407 5.12216 19.1134 5.01843 19.0618 4.92633C19.0102 4.83423 18.9362 4.75676 18.8465 4.70115C18.7569 4.64554 18.6546 4.61365 18.5492 4.60843C18.4438 4.60321 18.3389 4.62487 18.2442 4.67133Z" stroke="currentColor" stroke-width="1.2" stroke-linecap="round" stroke-linejoin="round"/>
<path d="M10.2796 19.3922H6.80469L8.17813 13.9974H11.6522L10.2796 19.3922Z" stroke="currentColor" stroke-width="1.2" stroke-linecap="round" stroke-linejoin="round"/>
<path d="M11.5293 7.48999V14.3099" stroke="currentColor" stroke-width="1.2" stroke-linecap="round" stroke-linejoin="round"/>
</svg>
