<svg width="18" height="18" viewBox="0 0 18 18" fill="none" xmlns="http://www.w3.org/2000/svg">
<path d="M8.31164 2.39488C8.62023 1.86507 9.38563 1.86506 9.69422 2.39488L11.4904 5.47867C11.6034 5.67275 11.7928 5.81037 12.0123 5.85791L15.5002 6.6132C16.0995 6.74297 16.336 7.47091 15.9275 7.92811L13.5497 10.5893C13.4 10.7568 13.3277 10.9795 13.3503 11.2029L13.7098 14.7535C13.7715 15.3635 13.1523 15.8134 12.5912 15.5662L9.32553 14.1271C9.12 14.0365 8.88586 14.0365 8.68033 14.1271L5.41461 15.5662C4.85354 15.8134 4.23432 15.3635 4.29608 14.7535L4.65557 11.2029C4.6782 10.9795 4.60585 10.7568 4.4562 10.5893L2.07838 7.92811C1.66985 7.47091 1.90637 6.74297 2.50562 6.6132L5.99352 5.85791C6.21303 5.81037 6.40245 5.67275 6.51549 5.47867L8.31164 2.39488Z" fill="#D3D9E4"/>
<path opacity="0.5" d="M8.57447 5.22956C8.7688 4.90665 9.23694 4.90665 9.43127 5.22956L10.5176 7.0346C10.5874 7.15061 10.7013 7.23334 10.8332 7.26389L12.8855 7.73923C13.2527 7.82426 13.3974 8.2695 13.1503 8.5541L11.7693 10.145C11.6805 10.2473 11.637 10.3811 11.6487 10.516L11.8309 12.6148C11.8635 12.9903 11.4847 13.2655 11.1377 13.1184L9.19791 12.2966C9.07325 12.2438 8.93249 12.2438 8.80782 12.2966L6.86802 13.1184C6.521 13.2655 6.14226 12.9903 6.17485 12.6148L6.357 10.516C6.3687 10.3811 6.32521 10.2473 6.23645 10.145L4.85544 8.5541C4.60838 8.2695 4.75305 7.82426 5.1202 7.73923L7.17258 7.26389C7.30449 7.23334 7.41836 7.15061 7.48817 7.0346L8.57447 5.22956Z" fill="#B4BECF"/>
</svg>
