<svg width="24" height="24" viewBox="0 0 24 24" fill="none" xmlns="http://www.w3.org/2000/svg">
<path d="M8.0311 6.00012H4.9689C4.70993 6.00012 4.5 6.20856 4.5 6.46567V9.53457C4.5 9.79169 4.70993 10.0001 4.9689 10.0001H8.0311C8.29007 10.0001 8.5 9.79169 8.5 9.53457V6.46567C8.5 6.20856 8.29007 6.00012 8.0311 6.00012Z" stroke="#6D7A87" stroke-width="1.5" stroke-linecap="round" stroke-linejoin="round"/>
<path d="M8.0311 14.0001H4.9689C4.70993 14.0001 4.5 14.2086 4.5 14.4657V17.5346C4.5 17.7917 4.70993 18.0001 4.9689 18.0001H8.0311C8.29007 18.0001 8.5 17.7917 8.5 17.5346V14.4657C8.5 14.2086 8.29007 14.0001 8.0311 14.0001Z" stroke="#6D7A87" stroke-width="1.5" stroke-linecap="round" stroke-linejoin="round"/>
<path d="M12.5 8.00012L19.5 8.00012" stroke="#6D7A87" stroke-width="1.5" stroke-linecap="round" stroke-linejoin="round"/>
<path d="M12.5 16.0001L19.5 16.0001" stroke="#6D7A87" stroke-width="1.5" stroke-linecap="round" stroke-linejoin="round"/>
</svg>
