<svg width="36" height="36" viewBox="0 0 36 36" fill="none" xmlns="http://www.w3.org/2000/svg">
<rect x="4.12109" y="10.915" width="17.583" height="22.9988" rx="1.44" transform="rotate(-16.084 4.12109 10.915)" fill="#FDA81F"/>
<path d="M19.6328 6.44238C20.3967 6.22239 21.1946 6.66301 21.415 7.42676L26.9893 26.7588C27.2094 27.5228 26.768 28.3207 26.0039 28.541L24.3779 29.0098H13.2666C12.4713 29.0098 11.8262 28.3646 11.8262 27.5693V8.69238L19.6328 6.44238Z" fill="#BE7F1A"/>
<rect x="13.3184" y="4.89478" width="17.583" height="22.9988" rx="1.44" fill="#F6D155"/>
<rect x="15.8535" y="7.61304" width="4.62507" height="4.62507" rx="0.72" fill="white"/>
<rect x="15.8535" y="15" width="9.52702" height="1.0942" rx="0.5471" fill="white"/>
<rect x="15.8535" y="17.6978" width="9.52702" height="1.0942" rx="0.5471" fill="white"/>
<rect x="15.8535" y="23.3464" width="5.13243" height="1.0942" rx="0.5471" fill="white"/>
<circle cx="26.548" cy="22.586" r="1.85467" fill="white"/>
</svg>
