<svg width="24" height="24" viewBox="0 0 24 24" fill="none" xmlns="http://www.w3.org/2000/svg">
<path d="M20 5H17.414L14.707 2.293C14.5195 2.10545 14.2652 2.00006 14 2H10C9.73481 2.00006 9.48049 2.10545 9.293 2.293L6.586 5H4C2.897 5 2 5.897 2 7V18C2 19.103 2.897 20 4 20H20C21.103 20 22 19.103 22 18V7C22 5.897 21.103 5 20 5Z" fill="#A3A9B5"/>
<path d="M12 8.48376C14.0597 8.48376 15.8145 10.2385 15.8145 12.2982C15.8145 14.3579 14.0597 16.1127 12 16.1127C9.94028 16.1127 8.18555 14.3579 8.18555 12.2982C8.18555 10.2385 9.94028 8.48376 12 8.48376Z" stroke="white" stroke-width="1.5"/>
</svg>
