<svg width="30" height="30" viewBox="0 0 30 30" fill="none" xmlns="http://www.w3.org/2000/svg">
<path d="M14.9885 5.83301C12.476 5.83301 10.0502 6.8185 8.24163 8.58372C6.43309 10.3381 5.37179 12.7315 5.28516 15.2547C5.28516 16.8575 5.76166 18.4278 6.62803 19.7599C6.73632 19.9331 6.76881 20.1389 6.693 20.3338L5.81581 22.5106C5.61004 23.0196 6.09738 23.5286 6.6172 23.3445L8.94556 22.5106C9.12966 22.4456 9.32459 22.4673 9.48704 22.5756C11.1331 23.626 13.05 24.1783 15.0101 24.1675C20.3708 24.1675 24.7134 20.1714 24.7134 15.2547C24.6268 12.7315 23.5655 10.3381 21.7461 8.58372C19.9268 6.8185 17.5118 5.83301 14.9885 5.83301Z" stroke="white" stroke-width="1.7"/>
<path d="M11.0615 16.2023C11.7254 16.2023 12.2636 15.6641 12.2636 15.0002C12.2636 14.3363 11.7254 13.7981 11.0615 13.7981C10.3976 13.7981 9.85938 14.3363 9.85938 15.0002C9.85938 15.6641 10.3976 16.2023 11.0615 16.2023Z" fill="white"/>
<path d="M15.0009 16.2023C15.6648 16.2023 16.2031 15.6641 16.2031 15.0002C16.2031 14.3363 15.6648 13.7981 15.0009 13.7981C14.337 13.7981 13.7988 14.3363 13.7988 15.0002C13.7988 15.6641 14.337 16.2023 15.0009 16.2023Z" fill="white"/>
<path d="M18.9404 16.2023C19.6043 16.2023 20.1425 15.6641 20.1425 15.0002C20.1425 14.3363 19.6043 13.7981 18.9404 13.7981C18.2765 13.7981 17.7383 14.3363 17.7383 15.0002C17.7383 15.6641 18.2765 16.2023 18.9404 16.2023Z" fill="white"/>
</svg>
