<svg width="30" height="30" viewBox="0 0 30 30" fill="none" xmlns="http://www.w3.org/2000/svg">
<path d="M14.998 5.4996C17.0844 5.48218 19.0945 6.28776 20.5908 7.74179C22.0869 9.19579 22.9498 11.1814 22.9922 13.2672C22.972 18.6479 18.1927 22.3316 16.0312 24.1236C15.7425 24.3625 15.3806 24.4956 15.0059 24.5006C14.6311 24.5055 14.2657 24.3821 13.9707 24.151C11.7247 22.3694 7.02985 19.0323 7.00586 13.2672C7.04778 11.1812 7.91001 9.19493 9.40625 7.74081C10.9024 6.2868 12.9118 5.48205 14.998 5.4996ZM14.999 10.3268C13.2576 10.3268 11.8459 11.7387 11.8457 13.4801C11.8457 15.2216 13.2575 16.6333 14.999 16.6334C16.7406 16.6334 18.1523 15.2217 18.1523 13.4801C18.1522 11.7386 16.7405 10.3268 14.999 10.3268Z" fill="#333D4B"/>
<circle cx="22.3438" cy="7.5542" r="2.67227" fill="#FFA20C" stroke="white" stroke-width="1.2"/>
</svg>
