<svg width="20" height="20" viewBox="0 0 20 20" fill="none" xmlns="http://www.w3.org/2000/svg">
<path d="M15.0783 4.03643L9.61481 6.17064H6.95367C6.24238 6.14836 5.55138 6.40978 5.03268 6.89743C4.51398 7.38509 4.2101 8.05903 4.18784 8.77095C4.16558 9.48288 4.42677 10.1745 4.91399 10.6937C5.40121 11.2128 6.07454 11.517 6.78584 11.5393C6.84179 11.5393 6.89772 11.5393 6.95367 11.5393H9.61481L15.0783 13.6482C15.1553 13.686 15.2406 13.7036 15.3263 13.6994C15.412 13.6952 15.4952 13.6693 15.5681 13.6241C15.6411 13.5789 15.7014 13.516 15.7434 13.4411C15.7855 13.3663 15.8077 13.282 15.8083 13.1961V4.4892C15.8078 4.40328 15.7856 4.31887 15.7436 4.24393C15.7016 4.16898 15.6414 4.10594 15.5684 4.06069C15.4955 4.01544 15.4122 3.98949 15.3265 3.98524C15.2407 3.98099 15.1553 3.99862 15.0783 4.03643Z" stroke="currentColor" stroke-linecap="round" stroke-linejoin="round"/>
<path d="M8.59717 16.0153H5.76953L6.88716 11.6254H9.71413L8.59717 16.0153Z" stroke="currentColor" stroke-linecap="round" stroke-linejoin="round"/>
<path d="M9.61523 6.3302V11.8798" stroke="currentColor" stroke-linecap="round" stroke-linejoin="round"/>
</svg>
