<svg width="24" height="24" viewBox="0 0 24 24" fill="none" xmlns="http://www.w3.org/2000/svg">
<path d="M16.1382 5.89551H18.1724C18.3978 5.89551 18.614 5.98514 18.7735 6.1447C18.9329 6.30425 19.0224 6.52065 19.0224 6.74629V18.4133C19.0224 18.6389 18.9329 18.8553 18.7735 19.0148C18.614 19.1744 18.3978 19.264 18.1724 19.264H5.83049C5.71884 19.2641 5.60826 19.2422 5.50508 19.1995C5.4019 19.1568 5.30815 19.0941 5.2292 19.0151C5.15025 18.9361 5.08764 18.8422 5.04496 18.739C5.00228 18.6357 4.98036 18.525 4.98047 18.4133V6.74629C4.98036 6.63453 5.00228 6.52385 5.04496 6.42058C5.08764 6.31732 5.15025 6.22348 5.2292 6.14446C5.30815 6.06544 5.4019 6.00277 5.50508 5.96005C5.60826 5.91734 5.71884 5.8954 5.83049 5.89551H7.61611" stroke="currentColor" stroke-width="1.2" stroke-linecap="round" stroke-linejoin="round"/>
<path d="M7.61719 4.73535H16.27V5.02945C16.27 5.81416 15.9586 6.56673 15.4042 7.1216C14.8498 7.67648 14.0979 7.9882 13.3139 7.9882H10.5725C9.78863 7.98799 9.03693 7.67617 8.48273 7.12132C7.92852 6.56647 7.61719 5.81402 7.61719 5.02945V4.73535Z" stroke="currentColor" stroke-width="1.2" stroke-linecap="round" stroke-linejoin="round"/>
<path d="M9.98438 12.6953H14.0206" stroke="currentColor" stroke-width="1.2" stroke-miterlimit="10" stroke-linecap="round"/>
</svg>
