<svg width="55" height="61" viewBox="0 0 55 61" fill="none" xmlns="http://www.w3.org/2000/svg">
<ellipse opacity="0.2" cx="25.3461" cy="46.9317" rx="9.74973" ry="2.77649" fill="black"/>
<g filter="url(#filter0_d_6253_33813)">
<path d="M36.4162 23.6212C33.6746 20.8797 29.6863 19.9963 25.7364 20.8531L27.4972 15.5235L29.3865 10.2628L29.2638 10.1763C27.6331 9.08318 25.4971 8.34165 23.1248 8.14667C22.7023 8.10826 22.274 8.09054 21.8367 8.09054C21.7865 8.09054 21.7363 8.09054 21.6861 8.09054C18.8529 8.11713 16.2945 8.90887 14.3978 10.1733C12.3801 11.5293 11.1245 13.426 11.1245 15.5235H19.2311L13.9192 31.5889C12.4628 36.0027 13.1954 40.6704 16.2827 43.7547C20.9564 48.4284 29.255 47.7105 34.8149 42.1505C40.3749 36.5906 41.0928 28.2949 36.4191 23.6183L36.4162 23.6212Z" fill="black"/>
<path d="M21.8371 7.58488C22.2879 7.58489 22.7314 7.60324 23.1704 7.64315L23.1694 7.64414C25.4639 7.83321 27.5577 8.51757 29.2186 9.54628L29.5455 9.75664L29.5553 9.76257L29.2729 10.1635L29.5553 9.76356L29.6778 9.84948L29.9929 10.0717L29.8625 10.4341L27.9732 15.6942L26.4839 20.1997C30.1197 19.6349 33.7492 20.4966 36.4064 22.9146L36.4193 22.9028L36.7768 23.2613C41.703 28.1909 40.8694 36.8111 35.1729 42.5079C29.4761 48.2047 20.8521 49.0386 15.9253 44.1118C12.6755 40.8648 11.9366 35.9853 13.4395 31.4308V31.4298L18.5316 16.029H10.6188V15.5233C10.6189 13.2082 12.005 11.1723 14.116 9.75368L14.117 9.75269C16.1036 8.42823 18.7604 7.61233 21.6811 7.58488H21.8371Z" stroke="white"/>
</g>
<path d="M29.6935 37.031C31.889 34.8355 32.1724 31.5592 30.3264 29.7132C28.4805 27.8673 25.2042 28.1507 23.0087 30.3462C20.8131 32.5417 20.5297 35.818 22.3757 37.664C24.2217 39.5099 27.4979 39.2265 29.6935 37.031Z" fill="#F7DD31"/>
<path d="M19.3462 40.6912C17.485 38.83 16.6991 36.2627 16.9532 33.6865H16.3594C16.1053 36.4133 16.9502 39.1313 18.9267 41.1077C20.6756 42.8566 23.0065 43.7193 25.4084 43.7193C25.7215 43.7193 26.0347 43.7016 26.3478 43.675V43.0841C23.7717 43.3382 21.2044 42.5524 19.3462 40.6912Z" fill="url(#paint0_linear_6253_33813)"/>
<path d="M33.7747 26.2686C31.7983 24.2922 29.0803 23.4472 26.3535 23.7013V24.2951C28.9296 24.0411 31.4969 24.8269 33.3581 26.6881C35.2193 28.5493 36.0052 31.1166 35.7511 33.6927H36.3449C36.599 30.9659 35.754 28.248 33.7776 26.2715L33.7747 26.2686Z" fill="url(#paint1_linear_6253_33813)"/>
<path d="M26.3525 25.559V26.1528C26.6657 26.1144 26.9788 26.0937 27.292 26.0937C29.0675 26.0937 30.7721 26.72 32.0454 27.9933C33.5432 29.4911 34.143 31.5828 33.8859 33.6862H34.4798C34.7368 31.4321 34.075 29.1898 32.462 27.5738C30.8489 25.9608 28.6037 25.299 26.3496 25.556L26.3525 25.559Z" fill="url(#paint2_linear_6253_33813)"/>
<path d="M20.6576 39.3824C19.3194 38.0441 18.6517 36.1947 18.7699 34.174C18.7787 34.0115 18.7964 33.849 18.8142 33.6895H18.2174C18.1997 33.8402 18.1879 33.9879 18.179 34.1386C18.049 36.3306 18.7787 38.3425 20.2381 39.799C21.5853 41.1461 23.4051 41.8729 25.4022 41.8729C25.5677 41.8729 25.7331 41.867 25.8986 41.8581C26.0492 41.8492 26.1999 41.8345 26.3476 41.8197V41.2229C26.1851 41.2436 26.0256 41.2584 25.8631 41.2673C23.8394 41.3913 21.993 40.7178 20.6547 39.3795L20.6576 39.3824Z" fill="url(#paint3_linear_6253_33813)"/>
<rect x="34.0309" y="15.5724" width="20.215" height="17.1811" rx="8.5" fill="#FF1D4E"/>
<rect x="34.0309" y="15.5724" width="20.215" height="17.1811" rx="8.5" stroke="white"/>
<text transform="scale(1.01132)" fill="white" style="white-space: pre" xml:space="preserve" font-family="Pretendard" font-size="10" font-weight="bold" letter-spacing="0em"><tspan x="40.9055" y="27.7297">3</tspan></text>
<defs>
<filter id="filter0_d_6253_33813" x="0" y="0" width="50.6291" height="61" filterUnits="userSpaceOnUse" color-interpolation-filters="sRGB">
<feFlood flood-opacity="0" result="BackgroundImageFix"/>
<feColorMatrix in="SourceAlpha" type="matrix" values="0 0 0 0 0 0 0 0 0 0 0 0 0 0 0 0 0 0 127 0" result="hardAlpha"/>
<feOffset dy="3"/>
<feGaussianBlur stdDeviation="5"/>
<feComposite in2="hardAlpha" operator="out"/>
<feColorMatrix type="matrix" values="0 0 0 0 0 0 0 0 0 0 0 0 0 0 0 0 0 0 0.3 0"/>
<feBlend mode="normal" in2="BackgroundImageFix" result="effect1_dropShadow_6253_33813"/>
<feBlend mode="normal" in="SourceGraphic" in2="effect1_dropShadow_6253_33813" result="shape"/>
</filter>
<linearGradient id="paint0_linear_6253_33813" x1="16.9768" y1="35.8077" x2="23.0952" y2="42.6114" gradientUnits="userSpaceOnUse">
<stop/>
<stop offset="0.5" stop-color="white"/>
<stop offset="1"/>
</linearGradient>
<linearGradient id="paint1_linear_6253_33813" x1="29.4525" y1="24.5906" x2="35.5709" y2="31.3972" gradientUnits="userSpaceOnUse">
<stop/>
<stop offset="0.5" stop-color="white"/>
<stop offset="1"/>
</linearGradient>
<linearGradient id="paint2_linear_6253_33813" x1="28.8932" y1="26.5782" x2="33.1621" y2="30.6197" gradientUnits="userSpaceOnUse">
<stop/>
<stop offset="0.5" stop-color="white"/>
<stop offset="1"/>
</linearGradient>
<linearGradient id="paint3_linear_6253_33813" x1="19.3903" y1="36.6172" x2="23.6592" y2="40.6587" gradientUnits="userSpaceOnUse">
<stop/>
<stop offset="0.5" stop-color="white"/>
<stop offset="1"/>
</linearGradient>
</defs>
</svg>
