<svg width="55" height="61" viewBox="0 0 55 61" fill="none" xmlns="http://www.w3.org/2000/svg">
<ellipse opacity="0.2" cx="25.0625" cy="46.4065" rx="9.64062" ry="2.74542" fill="black"/>
<g filter="url(#filter0_d_6406_73300)">
<path d="M36.0086 23.3569C33.2977 20.646 29.3541 19.7726 25.4484 20.6197L27.1894 15.3498L29.0576 10.1479L28.9363 10.0624C27.3238 8.98153 25.2118 8.2483 22.866 8.0555C22.4483 8.01753 22.0247 8 21.5924 8C21.5427 8 21.4931 8 21.4434 8C18.6419 8.02629 16.1122 8.80918 14.2367 10.0595C12.2415 11.4003 11 13.2757 11 15.3498H19.0159L13.7635 31.2355C12.3233 35.5998 13.0478 40.2153 16.1005 43.2651C20.7218 47.8865 28.9276 47.1766 34.4253 41.6788C39.9231 36.1811 40.6329 27.9783 36.0116 23.354L36.0086 23.3569Z" fill="black"/>
<path d="M21.5928 7.5C22.0384 7.50001 22.477 7.51816 22.9111 7.55762L22.9102 7.55859C25.179 7.74556 27.2493 8.42225 28.8916 9.43945L29.2148 9.64746L29.2246 9.65332L28.9453 10.0498L29.2246 9.6543L29.3457 9.73926L29.6572 9.95898L29.5283 10.3174L27.6602 15.5186L26.1875 19.9736C29.7826 19.4151 33.3715 20.2673 35.999 22.6582L36.0117 22.6465L36.3652 23.001C41.2363 27.8754 40.4121 36.3992 34.7793 42.0322C29.1462 47.6653 20.6187 48.4898 15.7471 43.6182C12.5336 40.4075 11.803 35.5826 13.2891 31.0791V31.0781L18.3242 15.8496H10.5V15.3496C10.5001 13.0604 11.8707 11.0473 13.958 9.64453L13.959 9.64355C15.9234 8.33392 18.5504 7.52714 21.4385 7.5H21.5928Z" stroke="white"/>
</g>
<path d="M29.3612 36.6166C31.5321 34.4456 31.8124 31.206 29.9871 29.3807C28.1618 27.5554 24.9222 27.8357 22.7512 30.0066C20.5802 32.1776 20.3 35.4172 22.1253 37.2425C23.9506 39.0678 27.1902 38.7876 29.3612 36.6166Z" fill="#F7DD31"/>
<path d="M19.1297 40.2358C17.2893 38.3954 16.5123 35.8569 16.7635 33.3096H16.1763C15.9251 36.0059 16.7606 38.6934 18.7149 40.6477C20.4442 42.3771 22.7491 43.2301 25.124 43.2301C25.4337 43.2301 25.7433 43.2125 26.053 43.1862V42.602C23.5057 42.8532 20.9671 42.0762 19.1297 40.2358Z" fill="url(#paint0_linear_6406_73300)"/>
<path d="M33.3948 25.9746C31.4405 24.0203 28.7529 23.1849 26.0566 23.4361V24.0233C28.604 23.772 31.1425 24.5491 32.9829 26.3895C34.8232 28.2298 35.6003 30.7684 35.3491 33.3157H35.9362C36.1875 30.6194 35.352 27.9319 33.3977 25.9776L33.3948 25.9746Z" fill="url(#paint1_linear_6406_73300)"/>
<path d="M26.0576 25.273V25.8601C26.3673 25.8221 26.6769 25.8017 26.9866 25.8017C28.7422 25.8017 30.4278 26.421 31.6868 27.68C33.1679 29.1611 33.7609 31.2293 33.5067 33.3093H34.0939C34.3481 31.0804 33.6937 28.8631 32.0987 27.2652C30.5037 25.6702 28.2836 25.0159 26.0547 25.27L26.0576 25.273Z" fill="url(#paint2_linear_6406_73300)"/>
<path d="M20.4265 38.9417C19.1032 37.6184 18.443 35.7897 18.5598 33.7916C18.5686 33.6309 18.5861 33.4702 18.6036 33.3125H18.0135C17.996 33.4615 17.9843 33.6075 17.9756 33.7565C17.847 35.9241 18.5686 37.9134 20.0117 39.3536C21.3437 40.6857 23.1432 41.4043 25.118 41.4043C25.2816 41.4043 25.4452 41.3985 25.6087 41.3897C25.7577 41.3809 25.9067 41.3663 26.0528 41.3517V40.7616C25.8921 40.7821 25.7344 40.7967 25.5737 40.8055C23.5726 40.9281 21.7469 40.2621 20.4236 38.9388L20.4265 38.9417Z" fill="url(#paint3_linear_6406_73300)"/>
<defs>
<filter id="filter0_d_6406_73300" x="0" y="0" width="50.0645" height="60.3174" filterUnits="userSpaceOnUse" color-interpolation-filters="sRGB">
<feFlood flood-opacity="0" result="BackgroundImageFix"/>
<feColorMatrix in="SourceAlpha" type="matrix" values="0 0 0 0 0 0 0 0 0 0 0 0 0 0 0 0 0 0 127 0" result="hardAlpha"/>
<feOffset dy="3"/>
<feGaussianBlur stdDeviation="5"/>
<feComposite in2="hardAlpha" operator="out"/>
<feColorMatrix type="matrix" values="0 0 0 0 0 0 0 0 0 0 0 0 0 0 0 0 0 0 0.3 0"/>
<feBlend mode="normal" in2="BackgroundImageFix" result="effect1_dropShadow_6406_73300"/>
<feBlend mode="normal" in="SourceGraphic" in2="effect1_dropShadow_6406_73300" result="shape"/>
</filter>
<linearGradient id="paint0_linear_6406_73300" x1="16.7869" y1="35.407" x2="22.8367" y2="42.1346" gradientUnits="userSpaceOnUse">
<stop/>
<stop offset="0.5" stop-color="white"/>
<stop offset="1"/>
</linearGradient>
<linearGradient id="paint1_linear_6406_73300" x1="29.121" y1="24.3154" x2="35.1709" y2="31.0459" gradientUnits="userSpaceOnUse">
<stop/>
<stop offset="0.5" stop-color="white"/>
<stop offset="1"/>
</linearGradient>
<linearGradient id="paint2_linear_6406_73300" x1="28.5699" y1="26.2808" x2="32.791" y2="30.277" gradientUnits="userSpaceOnUse">
<stop/>
<stop offset="0.5" stop-color="white"/>
<stop offset="1"/>
</linearGradient>
<linearGradient id="paint3_linear_6406_73300" x1="19.1733" y1="36.2074" x2="23.3944" y2="40.2037" gradientUnits="userSpaceOnUse">
<stop/>
<stop offset="0.5" stop-color="white"/>
<stop offset="1"/>
</linearGradient>
</defs>
</svg>
